<svg width="43" height="40" viewBox="0 0 43 40" fill="none" xmlns="http://www.w3.org/2000/svg">
<path fill-rule="evenodd" clip-rule="evenodd" d="M12.6686 7.0114C12.503 7.14539 12.2896 7.31904 12.0423 7.5224C11.4443 8.01412 10.6438 8.68309 9.84056 9.38694C9.04268 10.0861 8.21927 10.8396 7.58674 11.4965C7.27911 11.8159 6.9889 12.141 6.76459 12.4442H2.7907V7.80044C2.7907 7.02981 2.16598 6.40509 1.39535 6.40509C0.624719 6.40509 0 7.02981 0 7.80044V13.8395C0 14.6101 0.624719 15.2349 1.39535 15.2349H6.21089V20.1522H1.39535C0.624719 20.1522 0 20.777 0 21.5476C0 22.3182 0.624719 22.9429 1.39535 22.9429H6.21089V27.8762H1.39535C0.624719 27.8762 0 28.5009 0 29.2715V35.2383C0 36.009 0.624719 36.6337 1.39535 36.6337C2.16598 36.6337 2.7907 36.009 2.7907 35.2383V30.6669H6.8593C7.89324 32.176 9.53169 34.2702 11.6784 36.0894C14.1424 38.1775 17.3932 40 21.2449 40C25.0992 40 28.3237 38.1753 30.7554 36.0826C32.8657 34.2665 34.4645 32.1773 35.4718 30.6669H39.559V35.4656C39.559 36.2362 40.1838 36.8609 40.9544 36.8609C41.725 36.8609 42.3497 36.2362 42.3497 35.4656V29.2715C42.3497 28.5009 41.725 27.8762 40.9544 27.8762H36.1083L36.1083 22.9429H40.9544C41.725 22.9429 42.3497 22.3182 42.3497 21.5476C42.3497 20.777 41.725 20.1522 40.9544 20.1522H36.1083L36.1083 15.2349H40.9544C41.725 15.2349 42.3497 14.6101 42.3497 13.8395V7.80044C42.3497 7.02981 41.725 6.40509 40.9544 6.40509C40.1838 6.40509 39.559 7.02981 39.559 7.80044V12.4442H35.5702C35.3608 12.1492 35.0943 11.8344 34.8122 11.5247C34.2129 10.8668 33.433 10.1123 32.6778 9.41274C31.9175 8.70841 31.1598 8.03904 30.5938 7.54708C30.3511 7.33609 30.1429 7.15707 29.9838 7.02109C29.6181 5.76697 28.8634 4.17689 27.622 2.82357C26.1926 1.2652 24.0903 0 21.2449 0C18.3962 0 16.3162 1.26845 14.9178 2.83885C13.7195 4.18456 13.0072 5.76101 12.6686 7.0114ZM26.7388 6.40509C26.4434 5.83439 26.0549 5.24359 25.5655 4.70999C24.5656 3.6199 23.173 2.7907 21.2449 2.7907C19.32 2.7907 17.962 3.61664 17.002 4.69471C16.5232 5.23243 16.1487 5.82937 15.8685 6.40509H26.7388ZM28.2329 9.19578H14.4056C14.2477 9.32363 14.0466 9.48729 13.8147 9.67798C13.23 10.1587 12.4536 10.8077 11.6798 11.4858C10.9087 12.1615 10.1627 12.8466 9.614 13.4145L21.2403 20.3689L32.7454 13.3999C32.2263 12.8304 31.5161 12.1407 30.7813 11.46C30.0499 10.7824 29.3158 10.1338 28.763 9.6533C28.5575 9.47464 28.3776 9.31972 28.2329 9.19578ZM33.3176 16.3161L22.6402 22.7837V37.1046C25.0125 36.7484 27.1326 35.5185 28.9351 33.9673C30.915 32.2634 32.4153 30.2522 33.3176 28.864V16.3161ZM19.8495 37.105V22.7888L9.00159 16.3001V28.8535C9.93277 30.244 11.4708 32.2555 13.4827 33.9604C15.3185 35.5162 17.4665 36.7488 19.8495 37.105Z" fill="#001A72"/>
</svg>
