<?xml version="1.0" encoding="UTF-8" standalone="no"?>
<svg
   width="64"
   height="64"
   viewBox="0 0 64 64"
   fill="none"
   version="1.1"
   id="svg2"
   sodipodi:docname="github-2.svg"
   inkscape:version="1.4 (e7c3feb1, 2024-10-09)"
   xmlns:inkscape="http://www.inkscape.org/namespaces/inkscape"
   xmlns:sodipodi="http://sodipodi.sourceforge.net/DTD/sodipodi-0.dtd"
   xmlns="http://www.w3.org/2000/svg"
   xmlns:svg="http://www.w3.org/2000/svg">
  <defs
     id="defs2" />
  <sodipodi:namedview
     id="namedview2"
     pagecolor="#505050"
     bordercolor="#eeeeee"
     borderopacity="1"
     inkscape:showpageshadow="0"
     inkscape:pageopacity="0"
     inkscape:pagecheckerboard="0"
     inkscape:deskcolor="#505050"
     inkscape:zoom="2.8791591"
     inkscape:rotation="1"
     inkscape:cx="13.276362"
     inkscape:cy="24.258306"
     inkscape:window-width="1104"
     inkscape:window-height="608"
     inkscape:window-x="680"
     inkscape:window-y="502"
     inkscape:window-maximized="0"
     inkscape:current-layer="svg2" />
  <path
     d="M37 48.6663V41.9997C37.2318 39.9118 36.6332 37.8165 35.3333 36.1663C40.3333 36.1663 45.3333 32.833 45.3333 26.9997C45.4666 24.9163 44.8833 22.8663 43.6666 21.1663C44.1333 19.2497 44.1333 17.2497 43.6666 15.333C43.6666 15.333 42 15.333 38.6666 17.833C34.2666 16.9997 29.7333 16.9997 25.3333 17.833C22 15.333 20.3333 15.333 20.3333 15.333C19.8333 17.2497 19.8333 19.2497 20.3333 21.1663C19.1198 22.8595 18.5308 24.921 18.6666 26.9997C18.6666 32.833 23.6666 36.1663 28.6666 36.1663C28.0166 36.983 27.5333 37.9163 27.25 38.9163C26.9666 39.9163 26.8833 40.9663 27 41.9997M27 41.9997V48.6663M27 41.9997C19.4833 45.333 18.6666 38.6663 15.3333 38.6663"
     stroke="#001A72"
     stroke-width="1.5"
     stroke-linecap="round"
     stroke-linejoin="round"
     id="path2" />
</svg>
