<svg width="82" height="44" viewBox="0 0 82 44" fill="none" xmlns="http://www.w3.org/2000/svg">
<g clip-path="url(#clip0_496_1373)">
<path fill-rule="evenodd" clip-rule="evenodd" d="M0.0679321 0.0680084H68.757L81.7932 13.1042V43.5801H13.1041L0.0679321 30.5439V0.0680084ZM1.08695 1.80758V30.1218L12.8057 41.8405V13.5263L1.08695 1.80758ZM1.80751 1.08703L13.5262 12.8057H80.0537L68.3349 1.08703H1.80751ZM80.7742 42.5611H13.8247V13.8248H80.7742V42.5611Z" fill="white"/>
<path d="M25.8491 25.2037C25.8491 26.2228 25.1698 27.1059 23.5393 27.1059C22.826 27.1059 22.2486 26.9361 21.7391 26.7323V25.3056C22.2826 25.5774 22.9279 25.7472 23.5054 25.7472C24.0489 25.7472 24.3206 25.5774 24.3206 25.2717C24.3206 24.3206 21.7391 24.6263 21.7391 22.6902C21.7391 21.5013 22.6902 20.788 24.0149 20.788C24.5584 20.788 25.0679 20.9239 25.6113 21.2296V22.6902C24.898 22.2486 24.3885 22.1127 23.9809 22.1127C23.5054 22.1127 23.2336 22.2826 23.2336 22.5883C23.1997 23.4714 25.8491 23.1317 25.8491 25.2037Z" fill="white"/>
<path d="M27.1398 23.947C27.1398 22.2146 28.5665 20.788 30.2988 20.788C32.0311 20.788 33.4577 22.2146 33.4577 23.947C33.4577 25.6793 32.0311 27.1059 30.2988 27.1059C28.5665 27.0719 27.1398 25.6793 27.1398 23.947ZM31.8953 23.947C31.8953 22.9959 31.1819 22.2826 30.2988 22.2826C29.4156 22.2826 28.7023 22.9959 28.7023 23.947C28.7023 24.898 29.4156 25.6114 30.2988 25.6114C31.1819 25.6114 31.8953 24.898 31.8953 23.947Z" fill="white"/>
<path d="M36.9904 20.4143V20.9239H38.9945L38.3151 22.3505H37.0244V26.97H35.5638V22.3165H34.5447V20.8899H35.5638V20.3124C35.5638 18.4782 36.5148 17.5611 38.0094 17.5611C38.383 17.5611 38.7227 17.629 39.0284 17.697V19.1236C38.7567 19.0217 38.451 18.9877 38.1453 18.9877C37.3301 18.9877 36.9904 19.5312 36.9904 20.4143Z" fill="white"/>
<path d="M42.0514 22.3165V24.7282C42.0514 25.3736 42.4251 25.6453 43.0025 25.6453C43.3762 25.6453 43.7498 25.5434 44.0555 25.3396V26.8342C43.6479 27.004 43.2743 27.1059 42.7308 27.1059C41.4061 27.1059 40.5909 26.3926 40.5909 24.932V22.3505H39.7077V20.9239H40.5909V19.3614L42.0514 18.9877V20.9239H44.0555V22.3505H42.0514V22.3165Z" fill="white"/>
<path d="M54.6194 20.9239L52.6833 26.97H51.2227L49.8979 22.826L48.5392 26.97H47.0787L45.1425 20.9239H46.8069L47.8939 24.966L49.1846 20.9239H50.6452L51.936 24.966L53.0229 20.9239C53.0229 20.9239 54.6194 20.9239 54.6194 20.9239Z" fill="white"/>
<path d="M55.3667 23.947C55.3667 22.2146 56.6235 20.788 58.3558 20.788C59.0352 20.788 59.5786 20.9918 59.9863 21.3315V20.9239H61.4468V26.97H60.0202V26.4945C59.6126 26.8681 59.0352 27.1059 58.3219 27.1059C56.6575 27.0719 55.3667 25.6793 55.3667 23.947ZM60.1221 23.947C60.1221 22.9959 59.4088 22.2826 58.5257 22.2826C57.6425 22.2826 56.9292 22.9959 56.9292 23.947C56.9292 24.898 57.6425 25.6114 58.5257 25.6114C59.4088 25.6114 60.1221 24.898 60.1221 23.947Z" fill="white"/>
<path d="M63.5189 20.9239H64.9455V21.7391C65.3871 20.9239 66.2023 20.788 66.9156 20.788V22.5203C65.8966 22.2486 64.9795 22.826 64.9795 24.1168V26.9361H63.5189V20.9239Z" fill="white"/>
<path d="M71.5351 25.6793C72.1126 25.6793 72.7919 25.5774 73.4713 25.3056L72.724 26.8342C72.3843 26.97 71.8748 27.1059 71.2634 27.1059C69.1235 27.1059 67.8327 25.7812 67.8327 23.947C67.8327 22.2146 69.1235 20.788 70.9917 20.788C72.2484 20.788 73.2675 21.4334 73.6751 22.2486V24.4565H69.3952C69.599 25.1698 70.3123 25.6793 71.5351 25.6793ZM69.3612 23.3016H72.5202C72.3164 22.5883 71.705 22.1467 70.9237 22.1467C70.1764 22.1467 69.599 22.6222 69.3612 23.3016Z" fill="white"/>
<path d="M30.1969 32.0651V36.0393H28.7363V32.3029C28.7363 31.6575 28.2608 31.2839 27.7852 31.2839C27.2757 31.2839 26.8342 31.6575 26.8342 32.3029V36.0393H25.3736V32.3029C25.3736 31.6575 24.898 31.2839 24.4225 31.2839C23.913 31.2839 23.4714 31.6575 23.4714 32.3029V36.0393H22.0108V29.9931H23.4374V30.4347C23.7771 30.0271 24.2187 29.8912 24.7961 29.8912C25.4415 29.8912 25.985 30.163 26.3586 30.6725C26.8342 30.129 27.4456 29.8912 28.1928 29.8912C29.3138 29.8912 30.1969 30.7744 30.1969 32.0651Z" fill="white"/>
<path d="M31.7254 33.0162C31.7254 31.2839 32.9822 29.8572 34.7145 29.8572C35.3939 29.8572 35.9373 30.061 36.345 30.4007V29.9931H37.8055V36.0393H36.3789V35.5637C35.9713 35.9374 35.3939 36.1752 34.6806 36.1752C33.0162 36.1752 31.7254 34.7485 31.7254 33.0162ZM36.4808 33.0162C36.4808 32.0651 35.7675 31.3518 34.8844 31.3518C34.0012 31.3518 33.2879 32.0651 33.2879 33.0162C33.2879 33.9673 34.0012 34.6806 34.8844 34.6806C35.7675 34.6806 36.4808 33.9673 36.4808 33.0162Z" fill="white"/>
<path d="M39.8096 29.9931H41.2363V30.4347C41.6778 29.9931 42.2553 29.8572 42.8327 29.8572C44.0895 29.8572 45.1085 30.8083 45.1085 32.0991V36.0053H43.6479V32.4388C43.6479 31.7934 43.1384 31.2839 42.493 31.2839C41.8477 31.2839 41.3382 31.7934 41.3382 32.4388V36.0393H39.8776V29.9931H39.8096Z" fill="white"/>
<path d="M50.9849 34.273C50.9849 35.292 50.3056 36.1752 48.6751 36.1752C47.9618 36.1752 47.3844 36.0053 46.8749 35.8015V34.3749C47.4184 34.6466 48.0637 34.8165 48.6412 34.8165C49.1847 34.8165 49.4564 34.6466 49.4564 34.3409C49.4564 33.3898 46.8749 33.6955 46.8749 31.7594C46.8749 30.5706 47.826 29.8572 49.1507 29.8572C49.6942 29.8572 50.2037 29.9931 50.7471 30.2988V31.7594C50.0338 31.3178 49.5243 31.182 49.1167 31.182C48.6412 31.182 48.3694 31.3518 48.3694 31.6575C48.3355 32.5746 50.9849 32.2349 50.9849 34.273Z" fill="white"/>
<path d="M54.1439 29.9931V36.0393H52.6833V29.9931H54.1439Z" fill="white"/>
<path d="M55.6723 33.0162C55.6723 31.2839 57.0989 29.8572 58.8313 29.8572C60.5636 29.8572 61.9902 31.2839 61.9902 33.0162C61.9902 34.7485 60.5636 36.1752 58.8313 36.1752C57.0989 36.1752 55.6723 34.7485 55.6723 33.0162ZM60.4277 33.0162C60.4277 32.0651 59.7144 31.3518 58.8313 31.3518C57.9481 31.3518 57.2348 32.0651 57.2348 33.0162C57.2348 33.9673 57.9481 34.6806 58.8313 34.6806C59.7144 34.6806 60.4277 33.9673 60.4277 33.0162Z" fill="white"/>
<path d="M63.4848 29.9931H64.9114V30.4347C65.353 29.9931 65.9304 29.8572 66.5079 29.8572C67.7647 29.8572 68.7837 30.8083 68.7837 32.0991V36.0053H67.3231V32.4388C67.3231 31.7934 66.8136 31.2839 66.1682 31.2839C65.5228 31.2839 65.0133 31.7934 65.0133 32.4388V36.0393H63.5527V29.9931H63.4848Z" fill="white"/>
<path d="M71.6709 34.3749V34.6127H71.1614V36.0393H70.8897V34.6127H70.3802V34.3749H71.6709Z" fill="white"/>
<path d="M72.2484 34.3749L72.7918 35.6996L73.3013 34.3749H73.641V36.0393H73.3693V34.8165L72.8598 36.0393H72.622L72.1125 34.8165V36.0393H71.8408V34.3749H72.2484Z" fill="white"/>
</g>
<defs>
<clipPath id="clip0_496_1373">
<rect width="81.8612" height="43.8178" fill="white"/>
</clipPath>
</defs>
</svg>
