<svg width="20" height="20" viewBox="0 0 20 20" fill="none" xmlns="http://www.w3.org/2000/svg">
<g clip-path="url(#clip0_6274_13710)">
<path d="M16.8522 0C18.0241 0 18.9678 0.9475 19.0234 2.06375V20L16.7934 18.1056L15.5697 16.9925L14.2316 15.8269L14.7884 17.6631H3.09219C1.92344 17.6631 0.976562 16.7775 0.976562 15.5994V2.0675C0.976562 0.95125 1.92406 0.00375 3.09594 0.00375H16.8459L16.8522 0ZM11.7541 4.73625H11.7278L11.5584 4.9025C13.2872 5.40375 14.1234 6.185 14.1234 6.185C13.0103 5.62813 12.0041 5.34812 11.0016 5.23438C10.2791 5.12375 9.55281 5.1825 8.94094 5.23438H8.77156C8.38094 5.23438 7.54781 5.40375 6.43094 5.84938C6.04344 6.01875 5.81906 6.12937 5.81906 6.12937C5.81906 6.12937 6.65219 5.2925 8.49469 4.84688L8.38094 4.73625C8.38094 4.73625 6.98781 4.68062 5.48406 5.79437C5.48406 5.79437 3.98031 8.415 3.98031 11.6437C3.98031 11.6437 4.81344 13.0925 7.09906 13.1475C7.09906 13.1475 7.43406 12.705 7.76969 12.3144C6.48719 11.9237 5.98594 11.1425 5.98594 11.1425C5.98594 11.1425 6.09969 11.1981 6.26594 11.3088H6.31469C6.34094 11.3088 6.35406 11.3219 6.36656 11.335V11.3412C6.37969 11.3544 6.39281 11.3637 6.41531 11.3637C6.69219 11.4775 6.96531 11.5881 7.19031 11.6988C7.58094 11.865 8.07906 12.0337 8.69094 12.145C9.46594 12.2587 10.3541 12.3112 11.3666 12.145C11.8647 12.0312 12.3659 11.9237 12.8672 11.6988C13.1897 11.5325 13.5897 11.3669 14.0291 11.0837C14.0291 11.0837 13.5309 11.865 12.1928 12.2556C12.4666 12.6431 12.8534 13.0887 12.8534 13.0887C15.1416 13.0369 16.0303 11.5881 16.0791 11.65C16.0791 8.42437 14.5653 5.80062 14.5653 5.80062C13.2047 4.78813 11.9284 4.74937 11.7041 4.74937L11.7497 4.73312L11.7541 4.73625ZM11.8941 8.415C12.4803 8.415 12.9522 8.91313 12.9522 9.525C12.9522 10.1438 12.4772 10.6412 11.8941 10.6412C11.3078 10.6412 10.8359 10.1431 10.8359 9.53125C10.8359 8.9125 11.3109 8.415 11.8941 8.415ZM8.10844 8.415C8.69094 8.415 9.16344 8.91313 9.16344 9.525C9.16344 10.1438 8.68844 10.6412 8.10531 10.6412C7.51906 10.6412 7.04406 10.1431 7.04406 9.53125C7.04406 8.9125 7.51906 8.415 8.10531 8.415H8.10844Z"
    fill="white"/>
</g>
<defs>
<clipPath id="clip0_6274_13710">
<rect width="20" height="20" fill="white"/>
</clipPath>
</defs>
</svg>
