<svg width="25" height="24" viewBox="0 0 25 24" fill="none" xmlns="http://www.w3.org/2000/svg">
    <path
        d="M14.6286 14.9268C15.548 17.6511 16.1662 20.4679 16.4722 23.3268C15.1954 23.7737 13.8522 24.0013 12.4995 24C10.1197 24.0036 7.79307 23.2966 5.81783 21.9696C6.73822 20.2644 7.99256 18.7619 9.50608 17.5518C11.0196 16.3416 12.7613 15.4484 14.6274 14.9256L14.6286 14.9268ZM23.9892 15.4824C23.1321 18.2979 21.2725 20.7015 18.7622 22.2384C18.4266 19.6013 17.8398 17.0023 17.0099 14.4768C19.3836 14.2315 21.7812 14.577 23.9892 15.4824ZM12.6735 10.182C13.072 10.9956 13.4452 11.826 13.7897 12.6696C9.63286 13.8877 6.10517 16.66 3.93948 20.4108C2.72253 19.164 1.78932 17.6691 1.20371 16.0284C0.618097 14.3876 0.3939 12.6398 0.54646 10.9044C4.5588 11.754 8.79197 11.5068 12.6735 10.182ZM21.7652 4.3728C23.7648 6.81436 24.7297 9.9412 24.4536 13.0848C21.8134 12.0912 18.9665 11.7735 16.1721 12.1608C15.7863 11.186 15.364 10.2262 14.9059 9.2832C17.4772 8.08595 19.8032 6.42082 21.7652 4.3728ZM6.81761 1.428C8.6112 3.46204 10.1917 5.67438 11.5345 8.0304C8.12803 9.11514 4.49754 9.29299 1.00134 8.5464C1.92151 5.49753 4.01305 2.93774 6.81761 1.428ZM12.4995 2.82286e-06C15.3656 2.82286e-06 17.9977 1.0044 20.0608 2.6808C18.2743 4.55417 16.1483 6.07143 13.7957 7.152C12.4707 4.78056 10.9191 2.54292 9.16284 0.470402C10.2474 0.157587 11.3707 -0.000771083 12.4995 2.82286e-06Z"
        fill="white" />
</svg>