<svg width="24" height="25" viewBox="0 0 24 25" fill="none" xmlns="http://www.w3.org/2000/svg">
<g clip-path="url(#clip0_4324_3963)">
<path fill-rule="evenodd" clip-rule="evenodd" d="M12 0.803711C5.37 0.803711 0 6.17371 0 12.8037C0 18.1137 3.435 22.5987 8.205 24.1887C8.805 24.2937 9.03 23.9337 9.03 23.6187C9.03 23.3337 9.015 22.3887 9.015 21.3837C6 21.9387 5.22 20.6487 4.98 19.9737C4.845 19.6287 4.26 18.5637 3.75 18.2787C3.33 18.0537 2.73 17.4987 3.735 17.4837C4.68 17.4687 5.355 18.3537 5.58 18.7137C6.66 20.5287 8.385 20.0187 9.075 19.7037C9.18 18.9237 9.495 18.3987 9.84 18.0987C7.17 17.7987 4.38 16.7637 4.38 12.1737C4.38 10.8687 4.845 9.78871 5.61 8.94871C5.49 8.64871 5.07 7.41871 5.73 5.76871C5.73 5.76871 6.735 5.45371 9.03 6.99871C9.99 6.72871 11.01 6.59371 12.03 6.59371C13.05 6.59371 14.07 6.72871 15.03 6.99871C17.325 5.43871 18.33 5.76871 18.33 5.76871C18.99 7.41871 18.57 8.64871 18.45 8.94871C19.215 9.78871 19.68 10.8537 19.68 12.1737C19.68 16.7787 16.875 17.7987 14.205 18.0987C14.64 18.4737 15.015 19.1937 15.015 20.3187C15.015 21.9237 15 23.2137 15 23.6187C15 23.9337 15.225 24.3087 15.825 24.1887C18.2072 23.3844 20.2772 21.8534 21.7437 19.8111C23.2101 17.7688 23.9993 15.318 24 12.8037C24 6.17371 18.63 0.803711 12 0.803711Z"
    fill="white"/>
</g>
<defs>
<clipPath id="clip0_4324_3963">
<rect width="24" height="24" fill="white" transform="translate(0 0.428711)"/>
</clipPath>
</defs>
</svg>
