<svg width="40" height="40" viewBox="0 0 40 40" fill="none" xmlns="http://www.w3.org/2000/svg">
<path d="M25 36.6663V29.9997C25.2318 27.9118 24.6332 25.8165 23.3333 24.1663C28.3333 24.1663 33.3333 20.833 33.3333 14.9997C33.4666 12.9163 32.8833 10.8663 31.6666 9.16634C32.1333 7.24967 32.1333 5.24967 31.6666 3.33301C31.6666 3.33301 30 3.33301 26.6666 5.83301C22.2666 4.99967 17.7333 4.99967 13.3333 5.83301C9.99998 3.33301 8.33331 3.33301 8.33331 3.33301C7.83331 5.24967 7.83331 7.24967 8.33331 9.16634C7.11977 10.8595 6.53077 12.921 6.66665 14.9997C6.66665 20.833 11.6666 24.1663 16.6666 24.1663C16.0166 24.983 15.5333 25.9163 15.25 26.9163C14.9666 27.9163 14.8833 28.9663 15 29.9997M15 29.9997V36.6663M15 29.9997C7.48331 33.333 6.66665 26.6663 3.33331 26.6663" stroke="#001A72" stroke-width="2" stroke-linecap="round" stroke-linejoin="round"/>
</svg>
