<svg width="25" height="24" viewBox="0 0 25 24" fill="none" xmlns="http://www.w3.org/2000/svg">
    <g clip-path="url(#clip0_4658_1860)">
        <path
            d="M24.4227 7.08371C24.4093 6.076 24.2203 5.07831 23.8643 4.13527C23.5556 3.33982 23.084 2.61741 22.4798 2.01419C21.8756 1.41097 21.152 0.940216 20.3552 0.631999C19.4227 0.282546 18.4376 0.0935908 17.4418 0.0731789C16.1597 0.0159664 15.7532 0 12.4987 0C9.24411 0 8.82697 8.92186e-08 7.5542 0.0731789C6.55885 0.0937409 5.57421 0.282694 4.64216 0.631999C3.84526 0.940001 3.12153 1.41068 2.51728 2.01393C1.91303 2.61717 1.44157 3.33969 1.13305 4.13527C0.782316 5.06548 0.593456 6.04871 0.574633 7.04247C0.517326 8.32376 0.5 8.72957 0.5 11.9787C0.5 15.2279 0.5 15.643 0.574633 16.915C0.594625 17.9102 0.782541 18.8921 1.13305 19.8248C1.44208 20.6202 1.9139 21.3424 2.51835 21.9454C3.1228 22.5484 3.8466 23.0188 4.64349 23.3268C5.57299 23.6903 6.5578 23.8927 7.55553 23.9255C8.83896 23.9827 9.24545 24 12.5 24C15.7546 24 16.1717 24 17.4445 23.9255C18.4402 23.9059 19.4254 23.7174 20.3578 23.368C21.1544 23.0594 21.8778 22.5885 22.482 21.9854C23.0862 21.3822 23.5579 20.66 23.8669 19.8647C24.2175 18.9334 24.4054 17.9514 24.4254 16.9549C24.4827 15.6749 24.5 15.2691 24.5 12.0186C24.4973 8.76949 24.4973 8.35703 24.4227 7.08371ZM12.4907 18.1231C9.08685 18.1231 6.32941 15.3702 6.32941 11.9721C6.32941 8.5739 9.08685 5.82104 12.4907 5.82104C14.1247 5.82104 15.6919 6.4691 16.8473 7.62264C18.0028 8.77618 18.6519 10.3407 18.6519 11.9721C18.6519 13.6034 18.0028 15.1679 16.8473 16.3215C15.6919 17.475 14.1247 18.1231 12.4907 18.1231ZM18.8972 7.02783C18.7084 7.02801 18.5215 6.99103 18.3472 6.91901C18.1728 6.84699 18.0143 6.74135 17.8809 6.60812C17.7474 6.4749 17.6416 6.31671 17.5695 6.14262C17.4973 5.96852 17.4603 5.78193 17.4605 5.59353C17.4605 5.40526 17.4976 5.21883 17.5698 5.0449C17.6419 4.87096 17.7477 4.71291 17.8811 4.57979C18.0144 4.44666 18.1727 4.34106 18.3469 4.26901C18.5212 4.19697 18.7079 4.15989 18.8965 4.15989C19.0851 4.15989 19.2718 4.19697 19.446 4.26901C19.6203 4.34106 19.7786 4.44666 19.9119 4.57979C20.0453 4.71291 20.151 4.87096 20.2232 5.0449C20.2954 5.21883 20.3325 5.40526 20.3325 5.59353C20.3325 6.38652 19.6901 7.02783 18.8972 7.02783Z"
            fill="white" />
        <path
            d="M12.5 16C14.7091 16 16.5 14.2091 16.5 12C16.5 9.79086 14.7091 8 12.5 8C10.2909 8 8.5 9.79086 8.5 12C8.5 14.2091 10.2909 16 12.5 16Z"
            fill="white" />
    </g>
    <defs>
        <clipPath id="clip0_4658_1860">
            <rect width="24" height="24" fill="white" transform="translate(0.5)" />
        </clipPath>
    </defs>
</svg>