<svg width="237" height="52" viewBox="0 0 237 52" fill="none" xmlns="http://www.w3.org/2000/svg">
<path d="M20.4783 0.791424L2.97587 10.8322C2.07054 11.3518 1.3184 12.1002 0.796893 13C0.273663 13.9015 0 14.9218 0 15.961V36.039C0 37.0782 0.277105 38.1002 0.800335 39C1.32357 39.8998 2.07743 40.6482 2.98275 41.1678L20.4869 51.2051C21.3939 51.7264 22.4214 52 23.4696 52C24.5178 52 25.5453 51.7264 26.4524 51.2051L43.9565 41.1678C44.8635 40.6482 45.6157 39.8998 46.1389 39C46.6621 38.1002 46.9375 37.0782 46.9392 36.039V15.961C46.9392 14.9218 46.6638 13.8998 46.1389 13C45.6157 12.1002 44.8618 11.3518 43.9548 10.8322L26.4455 0.791424C25.5384 0.271837 24.5092 0 23.4627 0C22.4163 0 21.387 0.273557 20.48 0.791424H20.4783Z" fill="#87CCE8"/>
<path d="M31.5952 11.6753C29.0978 10.2232 26.1306 9.7896 23.3182 10.4692C20.5058 11.1488 18.0687 12.8848 16.5214 15.3141C16.0377 16.0505 9.96551 26.4388 9.96551 26.4388C9.90355 26.542 9.86396 26.6555 9.84675 26.7742C9.82954 26.893 9.83642 27.0134 9.8674 27.1287C9.89838 27.2439 9.95002 27.3523 10.024 27.4487C10.0963 27.5433 10.1875 27.6242 10.2908 27.6844C10.3941 27.7463 10.5094 27.7859 10.6282 27.8031C10.7469 27.8203 10.8691 27.8134 10.9862 27.7825C11.1032 27.7515 11.2116 27.6999 11.308 27.6276C11.4044 27.5554 11.4836 27.4642 11.5455 27.3609L16.1186 19.6101C16.5042 19.9904 16.9723 20.2811 17.4869 20.4566L8.38033 35.75C8.25813 35.9582 8.22198 36.206 8.28222 36.4382C8.34246 36.6722 8.49393 36.8718 8.70218 36.9939C8.8416 37.0748 8.99994 37.1195 9.16001 37.1213C9.3218 37.1213 9.48014 37.08 9.61956 37.0008C9.75897 36.9217 9.87601 36.8064 9.95862 36.6688L19.3045 20.9659L19.9172 21.1052L20.8948 21.3255L14.2064 32.6325C14.0842 32.8407 14.0498 33.0884 14.1118 33.3207C14.172 33.553 14.3235 33.7543 14.5317 33.8764C14.6694 33.959 14.8295 34.002 14.9895 34.0003C15.1513 34.002 15.3097 33.9624 15.4491 33.8833C15.5885 33.8042 15.7055 33.6906 15.7882 33.553L22.7244 21.8158C23.239 21.9793 23.7399 22.1771 24.2287 22.4059L19.542 30.2307C19.4318 30.4389 19.4077 30.6798 19.4714 30.9051C19.5351 31.1305 19.6848 31.3215 19.8879 31.4402C20.091 31.5589 20.332 31.5951 20.5626 31.5417C20.7915 31.4884 20.9912 31.349 21.1203 31.1529L25.7863 23.3608C26.2132 23.667 26.6194 24.0008 27.0032 24.3604L19.8948 36.3642C19.8277 36.4675 19.7812 36.5827 19.7606 36.7049C19.7382 36.8253 19.7434 36.9509 19.7709 37.0696C19.7984 37.1901 19.8518 37.3019 19.9258 37.4017C19.9998 37.5015 20.0928 37.5841 20.1995 37.646C20.3062 37.7079 20.4249 37.7492 20.5471 37.7647C20.6693 37.7802 20.795 37.7716 20.9137 37.7372C21.0325 37.7028 21.1444 37.646 21.2408 37.5686C21.3372 37.4912 21.4163 37.3948 21.4731 37.2864L28.3336 25.7058L28.9859 26.4164L29.4558 26.936L20.1272 42.6131C20.0601 42.7163 20.0136 42.8316 19.9912 42.9537C19.9706 43.0741 19.974 43.1997 20.0015 43.3202C20.0291 43.4406 20.0824 43.5524 20.1564 43.6522C20.2305 43.752 20.3234 43.8346 20.4301 43.8965C20.5368 43.9585 20.6556 43.9998 20.7795 44.0153C20.9017 44.0307 21.0273 44.0221 21.1461 43.9877C21.2649 43.9533 21.3767 43.8965 21.4731 43.8191C21.5695 43.7417 21.6487 43.6453 21.7055 43.537L30.8052 28.2435C31.1993 28.5825 31.6641 28.8337 32.1666 28.9765L27.5539 36.8185C27.4903 36.9217 27.449 37.0352 27.43 37.1557C27.4111 37.2744 27.418 37.3965 27.4472 37.5135C27.4765 37.6305 27.5299 37.7406 27.6021 37.837C27.6744 37.9333 27.7656 38.0142 27.8706 38.0761C27.9756 38.1381 28.0909 38.1776 28.2114 38.1931C28.3319 38.2103 28.4541 38.2017 28.5711 38.1708C28.6882 38.1398 28.7983 38.0847 28.8947 38.0125C28.9911 37.9385 29.072 37.8473 29.1322 37.7424L35.578 26.819C37.065 24.2847 37.4815 21.2687 36.7363 18.4299C35.9893 15.5911 34.1425 13.1618 31.5969 11.6735L31.5952 11.6753ZM34.1305 25.6422L33.8189 26.1755C33.3749 26.8861 33.0702 27.1287 32.7622 27.139C32.2389 27.1562 31.2441 26.16 30.3698 25.1897C29.239 23.9234 27.8242 22.344 25.9361 21.248C24.0497 20.1521 21.9723 19.6876 20.3079 19.3177C19.0291 19.0372 17.6608 18.712 17.4146 18.251C17.246 17.9378 17.3716 17.444 17.9276 16.5184C18.53 15.4603 19.3355 14.5313 20.2993 13.7829C21.2631 13.0344 22.3647 12.4822 23.5437 12.157C24.7227 11.8318 25.9533 11.7406 27.1667 11.8886C28.3801 12.0366 29.5539 12.4202 30.6176 13.0172C31.683 13.6142 32.6176 14.416 33.3714 15.3726C34.1253 16.3292 34.6812 17.4251 35.0083 18.5951C35.3353 19.765 35.4282 20.9883 35.2785 22.1943C35.1305 23.4004 34.7432 24.5651 34.1408 25.6232L34.1305 25.6404V25.6422ZM29.1426 16.9606C28.8483 17.0277 28.5402 17.0088 28.2562 16.9021C27.9739 16.7954 27.7278 16.6096 27.5522 16.3653C27.3767 16.121 27.2768 15.8302 27.2665 15.5309C27.2562 15.2315 27.3371 14.9339 27.4954 14.6792C27.6555 14.4246 27.8879 14.2216 28.1632 14.0977C28.4386 13.9738 28.745 13.9343 29.0427 13.9824C29.3405 14.0306 29.6176 14.1665 29.8379 14.373C30.0582 14.5777 30.2131 14.8444 30.282 15.1369C30.3284 15.3313 30.3336 15.5326 30.3009 15.7287C30.2682 15.9249 30.1976 16.1141 30.0909 16.2827C29.9842 16.453 29.8465 16.5993 29.683 16.7163C29.5195 16.8316 29.3353 16.9159 29.1391 16.9606H29.1426ZM24.8741 17.3632C24.6418 17.4148 24.3974 17.3993 24.1736 17.315C23.9499 17.2307 23.7571 17.0827 23.6177 16.8901C23.4783 16.6974 23.4008 16.4668 23.3922 16.2311C23.3836 15.9937 23.4456 15.7597 23.5712 15.5567C23.6968 15.3554 23.8793 15.1937 24.0962 15.0939C24.313 14.9941 24.554 14.9597 24.7915 14.9958C25.0273 15.0319 25.2476 15.1369 25.4249 15.2969C25.6022 15.4569 25.7261 15.6651 25.7846 15.8956C25.8225 16.0505 25.8311 16.2122 25.8053 16.3705C25.7812 16.5287 25.7244 16.6802 25.6383 16.8161C25.5523 16.952 25.4421 17.069 25.3113 17.1619C25.1805 17.2548 25.0307 17.3202 24.8741 17.3546V17.3649V17.3632ZM32.8947 22.4851C32.6537 22.5401 32.4024 22.5246 32.1701 22.4369C31.9394 22.3509 31.7381 22.1978 31.5952 21.9982C31.4506 21.7986 31.3697 21.5612 31.3629 21.3151C31.3542 21.0691 31.4214 20.8282 31.5505 20.6201C31.6813 20.4119 31.8706 20.2467 32.0961 20.1452C32.3215 20.0437 32.5711 20.011 32.8155 20.0523C33.0599 20.0919 33.2854 20.2037 33.4661 20.3723C33.6468 20.5409 33.7725 20.7577 33.8293 20.9969C33.9016 21.3169 33.8448 21.6506 33.6692 21.9276C33.4936 22.2046 33.2148 22.4025 32.8947 22.4748V22.4851ZM32.516 19.5516C32.3284 19.5964 32.1322 19.5861 31.9498 19.5207C31.769 19.4553 31.6107 19.3366 31.4971 19.1817C31.3835 19.0269 31.3181 18.8428 31.3112 18.6501C31.3026 18.4591 31.3525 18.2699 31.4541 18.1064C31.5556 17.943 31.7019 17.8122 31.8775 17.7331C32.053 17.6522 32.2475 17.6264 32.4386 17.6557C32.6296 17.6866 32.8069 17.7709 32.948 17.9017C33.0892 18.0325 33.189 18.2011 33.2337 18.3869C33.2905 18.6329 33.2458 18.8927 33.1133 19.1078C32.979 19.3228 32.7656 19.4777 32.5177 19.5379V19.5482L32.516 19.5516ZM30.3216 20.5186C30.1839 20.5495 30.0393 20.5392 29.9085 20.4876C29.7777 20.4377 29.6624 20.35 29.5815 20.2347C29.5006 20.1194 29.4541 19.9852 29.4507 19.8441C29.4472 19.7048 29.4834 19.5654 29.5591 19.4467C29.6331 19.328 29.7415 19.2334 29.8706 19.1749C29.9997 19.1164 30.1426 19.0974 30.282 19.1198C30.4214 19.1422 30.5505 19.2058 30.6537 19.3005C30.757 19.3951 30.8293 19.519 30.8637 19.6549C30.8861 19.7461 30.8895 19.8424 30.874 19.9353C30.8586 20.0282 30.8259 20.1177 30.7742 20.1985C30.7243 20.2794 30.6572 20.3482 30.5797 20.4033C30.5023 20.4583 30.4145 20.4962 30.3216 20.5168V20.5186ZM22.2683 15.6926C22.1306 15.7236 21.9877 15.7115 21.8552 15.6616C21.7244 15.6117 21.6108 15.524 21.5282 15.4087C21.4473 15.2952 21.4008 15.1592 21.3974 15.0182C21.3939 14.8788 21.4301 14.7394 21.5041 14.6207C21.5781 14.502 21.6865 14.4074 21.8139 14.3489C21.943 14.2904 22.0841 14.2715 22.2235 14.2938C22.363 14.3162 22.492 14.3781 22.597 14.4728C22.7003 14.5674 22.7743 14.6913 22.807 14.8272C22.8483 15.0113 22.8156 15.204 22.7141 15.364C22.6125 15.524 22.4507 15.6358 22.2666 15.6771V15.6909L22.2683 15.6926Z" fill="#001A72"/>
<path d="M62.8529 29.004H66.5568L66.4914 10.5208H66.5568L73.1471 29.004H76.4259L83.0162 10.5208H83.0816L82.9835 29.004H86.918V7.43945H80.7873L74.9836 23.7273H74.9182L69.1472 7.43945H62.8529V29.004Z" fill="white"/>
<path d="M106.861 20.32C106.861 15.2738 103.944 12.5537 99.3533 12.5537C94.238 12.5537 91.0264 15.7986 91.0264 21.0426C91.0264 26.2866 94.2398 29.2682 99.3533 29.2682C103.78 29.2682 106.73 27.0729 106.861 23.4668H103.549C103.386 25.3679 101.778 26.4157 99.4187 26.4157C96.6649 26.4157 94.9265 24.7451 94.7303 21.631H106.861V20.32ZM103.549 19.403H94.8284C95.2552 16.7156 96.8611 15.4046 99.386 15.4046C102.042 15.4046 103.549 16.7483 103.549 19.1741V19.403Z" fill="white"/>
<path d="M110.711 29.005H114.382V21.1063C114.382 17.6326 116.054 15.6988 118.546 15.6988C120.742 15.6988 121.955 17.1405 121.955 19.4357V29.005H125.627V20.9755C125.627 17.5999 127.265 15.6988 129.823 15.6988C132.019 15.6988 133.167 17.1405 133.167 19.501V29.005H136.838V18.6821C136.838 14.8798 134.773 12.5537 131.167 12.5537C128.084 12.5537 126.119 14.1916 125.529 16.8136H125.496C125.102 14.1916 123.069 12.5537 119.923 12.5537C116.973 12.5537 115.005 14.2914 114.284 17.0769H114.252L114.382 12.8169H110.711V29.0067V29.005Z" fill="white"/>
<path d="M150.916 29.2657C155.473 29.2657 158.325 25.9554 158.325 20.6133C158.325 15.6325 155.539 12.5511 150.883 12.5511C147.67 12.5511 145.441 14.0583 144.752 16.4188H144.72C144.752 15.6325 144.785 14.3215 144.785 13.6333V6.29199H141.114V29.0041H144.785C144.72 28.1852 144.654 26.7107 144.654 25.5632H144.687C145.343 27.8239 147.572 29.2657 150.916 29.2657ZM149.966 26.2514C146.785 26.2514 144.785 24.5137 144.785 21.6955V20.8766C144.785 17.599 146.818 15.5671 150.031 15.5671C152.916 15.5671 154.654 17.5337 154.654 20.7131C154.654 24.1541 152.85 26.2514 149.966 26.2514Z" fill="white"/>
<path d="M162.16 29.0052H165.831V21.9272C165.831 18.0595 167.569 15.7007 170.356 15.7007C172.519 15.7007 173.569 16.979 173.569 19.6991C173.569 20.4527 173.504 21.2717 173.438 21.8945H176.783C176.848 21.2063 176.946 19.8953 176.946 18.8802C176.946 14.8491 175.012 12.5557 171.504 12.5557C167.996 12.5557 166.488 14.5549 165.733 17.4711H165.7L165.831 12.8172H162.16V29.007V29.0052Z" fill="white"/>
<path d="M186.45 29.2661C190.024 29.2661 191.958 27.8243 192.483 25.4311H192.516C192.516 26.7421 192.418 28.2166 192.352 29.0028H196.023V19.1375C196.023 14.8776 193.139 12.5498 188.22 12.5498C183.597 12.5498 180.778 14.4836 180.778 17.7285C180.778 18.0227 180.81 18.4494 180.843 18.6782H184.22C184.187 18.4167 184.187 18.1534 184.187 18.0554C184.187 16.2523 185.597 15.3026 188.089 15.3026C190.941 15.3026 192.351 16.3848 192.351 18.8089V19.9565H186.351C182.022 19.9565 180.285 21.8903 180.285 24.3472C180.285 27.494 182.745 29.2626 186.449 29.2626L186.45 29.2661ZM187.204 26.5133C184.974 26.5133 183.664 25.6616 183.664 24.1872C183.664 22.9089 184.581 22.188 186.681 22.188H192.352V22.4822C192.352 24.9734 190.385 26.5133 187.204 26.5133Z" fill="white"/>
<path d="M200.194 29.005H203.865V21.1716C203.865 17.6326 205.898 15.6988 209.111 15.6988C212.028 15.6988 213.471 17.1405 213.471 19.6972V29.005H217.142V18.8782C217.142 14.8798 214.617 12.5537 210.519 12.5537C206.748 12.5537 204.65 14.2243 203.765 17.1423H203.733L203.863 12.8169H200.192V29.0067L200.194 29.005Z" fill="white"/>
<path d="M236.653 20.32C236.653 15.2738 233.736 12.5537 229.145 12.5537C224.03 12.5537 220.818 15.7986 220.818 21.0426C220.818 26.2866 224.032 29.2682 229.145 29.2682C233.572 29.2682 236.522 27.0729 236.653 23.4668H233.341C233.178 25.3679 231.57 26.4157 229.211 26.4157C226.457 26.4157 224.718 24.7451 224.522 21.631H236.653V20.32ZM233.341 19.403H224.62C225.047 16.7156 226.653 15.4046 229.178 15.4046C231.834 15.4046 233.341 16.7483 233.341 19.1741V19.403Z" fill="white"/>
<path d="M62.8923 35.6309H64.4545V46.362H70.7369L70.4992 47.7543H62.8923V35.6309Z" fill="white"/>
<path d="M72.257 38.9758H73.7342V47.7543H72.257V38.9758ZM72.206 35.6309H73.7851V37.3458H72.206V35.6309Z" fill="white"/>
<path d="M75.018 38.9758H76.733L79.3478 46.1073L82.0136 38.9758H83.6437L80.1119 47.7543H78.5328L75.018 38.9758Z" fill="white"/>
<path d="M92.1496 45.2922C92.0025 46.1412 91.6233 46.8091 91.012 47.2958C90.4121 47.7826 89.5461 48.026 88.4141 48.026C87.0784 48.026 86.054 47.6241 85.3408 46.8204C84.6277 46.0054 84.2711 44.8734 84.2711 43.4245C84.2711 42.6661 84.373 41.9925 84.5767 41.4039C84.7805 40.8153 85.0635 40.3229 85.4257 39.9267C85.7993 39.5305 86.2407 39.2305 86.7501 39.0268C87.2595 38.8117 87.8142 38.7042 88.4141 38.7042C89.0933 38.7042 89.6763 38.8117 90.163 39.0268C90.6498 39.2419 91.046 39.5418 91.3516 39.9267C91.6685 40.3002 91.9006 40.7474 92.0478 41.2681C92.2062 41.7888 92.2855 42.3604 92.2855 42.983V43.7301H85.7653C85.7653 44.1716 85.8219 44.5848 85.9351 44.9696C86.0596 45.3432 86.2294 45.6715 86.4445 45.9545C86.6709 46.2261 86.9482 46.4412 87.2765 46.5997C87.6048 46.7582 87.984 46.8374 88.4141 46.8374C89.1499 46.8374 89.6876 46.7016 90.0272 46.4299C90.3668 46.1469 90.5988 45.7677 90.7233 45.2922H92.1496ZM90.8082 42.6265C90.8082 42.2076 90.763 41.8284 90.6724 41.4888C90.5818 41.1492 90.4403 40.8606 90.2479 40.6229C90.0555 40.3738 89.8064 40.1814 89.5008 40.0456C89.1952 39.9097 88.8273 39.8418 88.3971 39.8418C87.6161 39.8418 87.0048 40.0795 86.5633 40.5549C86.1332 41.0304 85.8785 41.7209 85.7993 42.6265H90.8082Z" fill="white"/>
</svg>
