<svg width="180" height="48" viewBox="0 0 180 48" fill="none" xmlns="http://www.w3.org/2000/svg">
<path d="M58.3957 15.4511C59.7121 16.1093 60.7249 17.0418 61.4325 18.2466C62.14 19.4515 62.4947 20.8611 62.4947 22.4754C62.4947 24.0898 62.1346 25.5068 61.4142 26.7226C60.6939 27.9402 59.681 28.8781 58.3774 29.5363C57.0738 30.1945 55.5637 30.5236 53.8506 30.5236H47.0694V40.5481H43.8279V14.4639H53.8524C55.5673 14.4639 57.0811 14.793 58.3993 15.4511H58.3957ZM53.5507 27.5435C55.2657 27.5435 56.6314 27.0846 57.6497 26.1649C58.6681 25.2453 59.1782 24.0167 59.1782 22.4754C59.1782 20.9342 58.6754 19.7111 57.6699 18.8042C56.6643 17.8974 55.304 17.444 53.5891 17.444H47.0676V27.5416H53.5507V27.5435Z" fill="#FFFDF5"/>
<path d="M65.0671 36.1145C64.2718 34.6482 63.8751 32.9589 63.8751 31.0465C63.8751 29.1341 64.2718 27.4447 65.0671 25.9785C65.8624 24.5122 66.974 23.3695 68.4019 22.5504C69.8298 21.7313 71.4643 21.32 73.3018 21.32C75.1392 21.32 76.7737 21.7295 78.2016 22.5504C79.6295 23.3695 80.7411 24.5122 81.5364 25.9785C82.3317 27.4447 82.7284 29.1341 82.7284 31.0465C82.7284 32.9589 82.3317 34.6482 81.5364 36.1145C80.7411 37.5808 79.6295 38.7235 78.2016 39.5426C76.7737 40.3616 75.1392 40.773 73.3018 40.773C71.4643 40.773 69.8298 40.3635 68.4019 39.5426C66.974 38.7235 65.8624 37.5808 65.0671 36.1145ZM78.8159 34.661C79.337 33.5933 79.5984 32.3885 79.5984 31.0465C79.5984 29.7045 79.337 28.4997 78.8159 27.4319C78.2948 26.3642 77.5544 25.5324 76.5982 24.9345C75.642 24.3385 74.5432 24.0405 73.2999 24.0405C72.0567 24.0405 70.9579 24.3385 70.0017 24.9345C69.0455 25.5305 68.3069 26.3624 67.784 27.4319C67.2629 28.4997 67.0015 29.7045 67.0015 31.0465C67.0015 32.3885 67.2629 33.5933 67.784 34.661C68.305 35.7287 69.0455 36.5606 70.0017 37.1585C70.9579 37.7545 72.0567 38.0525 73.2999 38.0525C74.5432 38.0525 75.642 37.7545 76.5982 37.1585C77.5544 36.5624 78.293 35.7306 78.8159 34.661Z" fill="#FFFDF5"/>
<path d="M103.763 25.8285C104.545 27.2948 104.937 29.0335 104.937 31.0447C104.937 33.0558 104.545 34.6464 103.763 36.1127C102.98 37.579 101.894 38.7217 100.503 39.5407C99.1118 40.3598 97.5468 40.7712 95.808 40.7712C94.2686 40.7712 92.9504 40.4914 91.8589 39.932C90.7656 39.3725 89.9082 38.6083 89.2884 37.6411V48.0002H86.2333V21.543H88.8788L89.2884 24.5981C90.879 22.4115 93.0528 21.3181 95.8099 21.3181C97.5742 21.3181 99.1447 21.7039 100.523 22.4736C101.902 23.2433 102.982 24.3622 103.765 25.8267L103.763 25.8285ZM101.807 31.0465C101.807 28.9842 101.229 27.3021 100.073 25.9967C98.918 24.6932 97.3968 24.0405 95.5082 24.0405C94.2906 24.0405 93.2046 24.333 92.2484 24.9162C91.2922 25.4994 90.5535 26.3203 90.0306 27.3753C89.5096 28.4302 89.2481 29.6296 89.2481 30.9715C89.2481 32.3135 89.5096 33.5622 90.0306 34.6427C90.5517 35.7233 91.2922 36.5624 92.2484 37.1585C93.2046 37.7545 94.2924 38.0525 95.5082 38.0525C97.3968 38.0525 98.918 37.3998 100.073 36.0962C101.229 34.7927 101.807 33.1088 101.807 31.0465Z" fill="#FFFDF5"/>
<path d="M117.011 40.7712C115.173 40.7712 113.557 40.3616 112.166 39.5407C110.774 38.7217 109.694 37.5717 108.924 36.0944C108.155 34.6171 107.769 32.9205 107.769 31.0081C107.769 29.0957 108.16 27.4064 108.943 25.9401C109.725 24.4738 110.824 23.3384 112.241 22.5303C113.658 21.7222 115.285 21.32 117.122 21.32C119.358 21.32 121.203 21.916 122.657 23.108C124.11 24.3001 125.022 25.9401 125.395 28.0261H122.302C122.004 26.8085 121.382 25.8395 120.439 25.1192C119.495 24.3988 118.353 24.0386 117.011 24.0386C115.197 24.0386 113.725 24.684 112.595 25.9766C111.466 27.2692 110.901 28.9458 110.901 31.0063C110.901 33.0667 111.466 34.789 112.595 36.0926C113.725 37.3961 115.197 38.0488 117.011 38.0488C118.402 38.0488 119.57 37.6887 120.514 36.9683C121.457 36.248 122.066 35.2534 122.34 33.9882H125.395C124.999 36.0999 124.066 37.7581 122.6 38.963C121.134 40.1678 119.271 40.7712 117.011 40.7712Z" fill="#FFFDF5"/>
<path d="M129.046 36.1145C128.251 34.6482 127.854 32.9589 127.854 31.0465C127.854 29.1341 128.251 27.4447 129.046 25.9785C129.842 24.5122 130.953 23.3695 132.381 22.5504C133.809 21.7313 135.444 21.32 137.281 21.32C139.118 21.32 140.753 21.7295 142.181 22.5504C143.609 23.3695 144.72 24.5122 145.516 25.9785C146.311 27.4447 146.708 29.1341 146.708 31.0465C146.708 32.9589 146.311 34.6482 145.516 36.1145C144.72 37.5808 143.609 38.7235 142.181 39.5426C140.753 40.3616 139.118 40.773 137.281 40.773C135.444 40.773 133.809 40.3635 132.381 39.5426C130.953 38.7235 129.842 37.5808 129.046 36.1145ZM142.797 34.661C143.318 33.5933 143.58 32.3885 143.58 31.0465C143.58 29.7045 143.318 28.4997 142.797 27.4319C142.276 26.3642 141.535 25.5324 140.579 24.9345C139.623 24.3385 138.524 24.0405 137.281 24.0405C136.038 24.0405 134.939 24.3385 133.983 24.9345C133.027 25.5305 132.288 26.3624 131.765 27.4319C131.244 28.4997 130.983 29.7045 130.983 31.0465C130.983 32.3885 131.244 33.5933 131.765 34.661C132.286 35.7287 133.027 36.5606 133.983 37.1585C134.939 37.7545 136.038 38.0525 137.281 38.0525C138.524 38.0525 139.623 37.7545 140.579 37.1585C141.535 36.5624 142.274 35.7306 142.797 34.661Z" fill="#FFFDF5"/>
<path d="M159.864 24.525H158.336C156.522 24.525 155.224 25.1338 154.441 26.3514C153.659 27.5691 153.268 29.0719 153.268 30.86V40.5481H150.213V21.5448H152.858L153.268 24.4134C153.814 23.5432 154.522 22.8484 155.392 22.3274C156.262 21.8063 157.467 21.5448 159.007 21.5448H159.864V24.525Z" fill="#FFFDF5"/>
<path d="M179.65 40.5481H176.595V30.1524C176.595 28.1907 176.154 26.6933 175.271 25.6622C174.39 24.631 173.116 24.1154 171.452 24.1154C169.664 24.1154 168.26 24.737 167.241 25.9785C166.223 27.2199 165.713 28.9092 165.713 31.0465V40.5481H162.658V21.5448H165.303L165.713 24.1154C167.154 22.2524 169.24 21.32 171.973 21.32C174.284 21.32 176.14 22.0147 177.544 23.406C178.948 24.7974 179.65 26.984 179.65 29.9641V40.5481Z" fill="#FFFDF5"/>
<path d="M10.7888 12.255H9.02447C8.91294 11.2678 8.82701 8.32422 11.202 5.80117L12.4745 6.99871C10.2659 9.34623 10.7668 12.1362 10.7888 12.255Z" fill="#FFFDF5"/>
<path d="M4.11184 12.0722C2.51757 12.0722 1.22131 10.776 1.22131 9.18169C1.22131 7.58741 2.51757 6.28933 4.11184 6.28933C5.70612 6.28933 7.00238 7.58559 7.00238 9.18169C7.00238 10.7778 5.70612 12.0722 4.11184 12.0722ZM4.11184 8.03718C3.48108 8.03718 2.96916 8.5491 2.96916 9.17986C2.96916 9.81062 3.48108 10.3225 4.11184 10.3225C4.74261 10.3225 5.25453 9.81062 5.25453 9.17986C5.25453 8.5491 4.74261 8.03718 4.11184 8.03718Z" fill="#FFFDF5"/>
<path d="M20.8188 12.0722C19.2245 12.0722 17.9283 10.776 17.9283 9.18169C17.9283 7.58741 19.2245 6.28933 20.8188 6.28933C22.4131 6.28933 23.7093 7.58559 23.7093 9.18169C23.7093 10.7778 22.4131 12.0722 20.8188 12.0722ZM20.8188 8.03718C20.188 8.03718 19.6761 8.5491 19.6761 9.17986C19.6761 9.81062 20.188 10.3225 20.8188 10.3225C21.4495 10.3225 21.9615 9.81062 21.9615 9.17986C21.9615 8.5491 21.4495 8.03718 20.8188 8.03718Z" fill="#FFFDF5"/>
<path d="M15.1017 5.78289C13.5074 5.78289 12.2112 4.48663 12.2112 2.89236C12.2112 1.29809 13.5074 0 15.1017 0C16.696 0 17.9922 1.29626 17.9922 2.89236C17.9922 4.48846 16.696 5.78289 15.1017 5.78289ZM15.1017 1.74968C14.471 1.74968 13.959 2.2616 13.959 2.89236C13.959 3.52312 14.471 4.03504 15.1017 4.03504C15.7325 4.03504 16.2444 3.52312 16.2444 2.89236C16.2444 2.2616 15.7325 1.74968 15.1017 1.74968Z" fill="#FFFDF5"/>
<path d="M24.9288 17.5757C24.9288 15.8133 23.2029 14.3799 21.082 14.3799C19.9211 14.3799 18.879 14.8114 18.1732 15.4897C17.4675 14.8114 16.4254 14.3799 15.2626 14.3799C14.0998 14.3799 13.0613 14.8114 12.3538 15.4897C11.6481 14.8114 10.6078 14.3799 9.44496 14.3799C8.28217 14.3799 7.22541 14.8187 6.51969 15.5061C5.83408 14.8699 4.84315 14.4676 3.73886 14.4676C1.67837 14.4676 0 15.8626 0 17.5757C0 17.7074 0.0127967 17.839 0.0329079 17.9743V17.9798C0.0329079 17.9798 0.0329079 17.9853 0.0329079 17.9871L1.91605 39.0015L7.88908 40.5464H23.3839L24.9105 17.8792V17.8555C24.9215 17.7604 24.9269 17.6653 24.9269 17.5739L24.9288 17.5757ZM3.68035 37.6449L1.88131 17.5483C1.90142 16.8115 2.72598 16.2173 3.73886 16.2173C4.75173 16.2173 5.59823 16.828 5.59823 17.5776C5.59823 17.594 5.59823 17.6123 5.59823 17.6306V17.6507C5.60189 17.722 5.60554 17.7951 5.61469 17.8701V17.8902C5.61469 17.903 5.61834 17.9158 5.62017 17.9304L7.00236 38.5042L3.68035 37.6449ZM8.90561 38.8004L7.49234 17.7787L7.47955 17.5666C7.48686 16.7731 8.36627 16.1314 9.44862 16.1314C10.531 16.1314 11.4177 16.7804 11.4177 17.5776H13.2953C13.2953 16.7804 14.1784 16.1314 15.2644 16.1314C16.3504 16.1314 17.2353 16.7804 17.2353 17.5776H19.113C19.113 16.7804 19.996 16.1314 21.082 16.1314C22.1681 16.1314 23.0475 16.7786 23.0511 17.5739L21.6232 38.8022H8.90744L8.90561 38.8004Z" fill="#FFFDF5"/>
<path d="M15.4143 33.5495C14.5386 33.5495 13.6647 33.2698 12.9681 32.7341C11.7815 31.82 11.244 30.2952 11.4926 28.5473C12.085 24.4136 15.1821 22.0843 15.3138 21.9874L15.9263 21.5358C16.2974 21.2616 16.8185 21.5559 16.7746 22.0148L16.7033 22.7717C16.5716 24.1704 17.0269 25.2984 18.3817 26.9293C19.2867 28.0208 19.634 29.3573 19.3324 30.5968C19.0472 31.7761 18.2116 32.7122 16.9812 33.2351C16.4839 33.4471 15.9482 33.5495 15.4162 33.5495H15.4143ZM15.067 24.6439C14.31 25.569 13.4416 26.9823 13.182 28.796C13.0211 29.9167 13.3081 30.8236 13.9919 31.3501C14.6227 31.8346 15.5112 31.9443 16.2554 31.628C16.9739 31.3227 17.4364 30.8236 17.5918 30.1873C17.7619 29.4907 17.5443 28.71 16.994 28.05C15.9683 26.8141 15.3467 25.7372 15.0688 24.6476L15.067 24.6439Z" fill="#FFFDF5"/>
</svg>
