<svg width="409" height="52" viewBox="0 0 409 52" fill="none" xmlns="http://www.w3.org/2000/svg">
<path d="M36.9223 6.49609H30.1694L36.9223 19.3425H45.1295L36.9223 6.49609Z" fill="#D3B6E2"/>
<path d="M30.7278 6.49609H21.7405L15.4006 19.3441H37.1141L30.7278 6.49609Z" fill="#D3B6E2"/>
<path d="M15.1667 19.5003L20.7138 32.6415L26.0372 44.8174L31.3946 32.6415L36.8802 19.5003L15.1667 19.5003Z" fill="#9F5FBF"/>
<path d="M14.8012 6.5H21.5541L15.1599 19.3464H6.59399L14.8012 6.5Z" fill="#D3B6E2"/>
<path d="M36.5603 19.4619H45.5731L26.2075 44.9137L36.5603 19.4619Z" fill="#9F5FBF"/>
<path d="M15.1054 19.4619H6.50001L25.4583 44.9137L15.1054 19.4619Z" fill="#9F5FBF"/>
<path d="M36.8333 5.41699C37.1955 5.41699 37.5338 5.59803 37.7347 5.89941L46.4014 18.8994C46.656 19.2814 46.6426 19.7825 46.3675 20.1499L26.8675 46.1499C26.6629 46.4227 26.341 46.5837 26 46.5837C25.659 46.5837 25.3371 46.4227 25.1325 46.1499L5.63247 20.1499C5.35737 19.7825 5.34399 19.2814 5.59862 18.8994L14.2653 5.89941L14.3478 5.7915C14.5521 5.55547 14.8501 5.41699 15.1667 5.41699H36.8333ZM7.82665 19.4622L26 43.6934L44.1712 19.4622L36.2536 7.58366H15.7464L7.82665 19.4622Z" fill="#001A72"/>
<path d="M31.3024 6.01515C31.0348 5.48001 30.3839 5.26304 29.8488 5.53061C29.3136 5.79818 29.0967 6.44908 29.3642 6.98423L35.6421 19.5399L24.9992 45.0829C24.7692 45.6351 25.0309 46.2704 25.5831 46.5005C26.1354 46.7305 26.7707 46.4688 27.0008 45.9165L37.8341 19.9165C37.9551 19.6259 37.9432 19.2967 37.8024 19.0151L31.3024 6.01515Z" fill="#001A72"/>
<path d="M20.6976 6.01515C20.9652 5.48001 21.6161 5.26304 22.1512 5.53061C22.6864 5.79818 22.9033 6.44908 22.6358 6.98423L16.3579 19.5399L27.0008 45.0829C27.2308 45.6351 26.9691 46.2704 26.4169 46.5005C25.8646 46.7305 25.2293 46.4688 24.9992 45.9165L14.1659 19.9165C14.0449 19.6259 14.0568 19.2967 14.1976 19.0151L20.6976 6.01515Z" fill="#001A72"/>
<path d="M45.5 18.417C46.0983 18.417 46.5834 18.902 46.5834 19.5003C46.5834 20.0986 46.0983 20.5837 45.5 20.5837H6.50002C5.90171 20.5837 5.41669 20.0986 5.41669 19.5003C5.41669 18.902 5.90171 18.417 6.50002 18.417H45.5Z" fill="#001A72"/>
<path d="M401.793 37.3362C400.244 37.3362 398.892 37.0936 397.737 36.6082C396.604 36.0998 395.703 35.4065 395.033 34.5282C394.385 33.6269 394.004 32.5985 393.889 31.4429H398.049C398.164 31.9282 398.372 32.3789 398.673 32.7949C398.973 33.1878 399.377 33.4998 399.886 33.7309C400.417 33.962 401.041 34.0776 401.758 34.0776C402.451 34.0776 403.017 33.9851 403.457 33.8002C403.896 33.5922 404.219 33.3264 404.427 33.0029C404.635 32.6793 404.739 32.3327 404.739 31.9629C404.739 31.4082 404.589 30.9807 404.289 30.6802C403.988 30.3798 403.549 30.1487 402.971 29.9869C402.417 29.802 401.746 29.6287 400.961 29.4669C400.129 29.3051 399.32 29.1087 398.534 28.8776C397.771 28.6233 397.078 28.3113 396.454 27.9416C395.853 27.5718 395.368 27.098 394.998 26.5202C394.651 25.9424 394.478 25.2376 394.478 24.4056C394.478 23.3887 394.744 22.4758 395.275 21.6669C395.83 20.858 396.616 20.2225 397.633 19.7602C398.673 19.2749 399.909 19.0322 401.342 19.0322C403.376 19.0322 404.993 19.506 406.195 20.4536C407.42 21.378 408.137 22.6838 408.345 24.3709H404.393C404.277 23.7238 403.953 23.2269 403.422 22.8802C402.89 22.5104 402.185 22.3256 401.307 22.3256C400.406 22.3256 399.713 22.4989 399.227 22.8456C398.765 23.1691 398.534 23.6082 398.534 24.1629C398.534 24.5327 398.673 24.8562 398.95 25.1336C399.25 25.4109 399.678 25.6536 400.233 25.8616C400.787 26.0464 401.469 26.2313 402.278 26.4162C403.572 26.6705 404.716 26.9709 405.71 27.3176C406.704 27.6642 407.489 28.1727 408.067 28.8429C408.645 29.5131 408.934 30.4607 408.934 31.6856C408.957 32.7949 408.668 33.7771 408.067 34.6322C407.489 35.4873 406.669 36.1576 405.606 36.6429C404.543 37.1051 403.272 37.3362 401.793 37.3362Z" fill="white"/>
<path d="M372.413 44.5469V19.4482H376.122L376.573 21.9789C376.943 21.4705 377.382 20.9967 377.89 20.5576C378.422 20.0953 379.057 19.7256 379.797 19.4482C380.559 19.1709 381.426 19.0322 382.397 19.0322C384.038 19.0322 385.482 19.4367 386.73 20.2456C388.001 21.0544 388.995 22.1522 389.711 23.5389C390.428 24.9024 390.786 26.4624 390.786 28.2189C390.786 29.9753 390.416 31.5469 389.677 32.9336C388.96 34.2971 387.967 35.3718 386.695 36.1576C385.447 36.9433 384.015 37.3362 382.397 37.3362C381.079 37.3362 379.924 37.0936 378.93 36.6082C377.959 36.0998 377.174 35.3833 376.573 34.4589V44.5469H372.413ZM381.53 33.7309C382.501 33.7309 383.367 33.4998 384.13 33.0376C384.893 32.5753 385.482 31.9282 385.898 31.0962C386.337 30.2642 386.557 29.3051 386.557 28.2189C386.557 27.1096 386.337 26.1389 385.898 25.3069C385.482 24.4749 384.893 23.8278 384.13 23.3656C383.367 22.9033 382.501 22.6722 381.53 22.6722C380.536 22.6722 379.658 22.9033 378.895 23.3656C378.156 23.8278 377.567 24.4749 377.127 25.3069C376.711 26.1389 376.504 27.098 376.504 28.1842C376.504 29.2936 376.711 30.2642 377.127 31.0962C377.567 31.9051 378.156 32.5522 378.895 33.0376C379.658 33.4998 380.536 33.7309 381.53 33.7309Z" fill="white"/>
<path d="M357.974 37.3372C356.564 37.3372 355.351 37.0599 354.334 36.5052C353.34 35.9274 352.577 35.0723 352.046 33.9399C351.514 32.7843 351.248 31.363 351.248 29.6759V19.4492H355.408V29.2599C355.408 30.7621 355.72 31.9061 356.344 32.6919C356.992 33.4546 357.962 33.8359 359.256 33.8359C360.088 33.8359 360.828 33.6394 361.475 33.2466C362.145 32.8537 362.665 32.2874 363.035 31.5479C363.428 30.7852 363.624 29.8608 363.624 28.7746V19.4492H367.784V36.9212H364.11L363.798 34.0092C363.266 35.0261 362.492 35.835 361.475 36.4359C360.481 37.0368 359.314 37.3372 357.974 37.3372Z" fill="white"/>
<path d="M344.492 36.9215C343.313 36.9215 342.284 36.7366 341.406 36.3669C340.551 35.9971 339.881 35.3846 339.396 34.5295C338.91 33.6744 338.668 32.5189 338.668 31.0629V22.9509H335.686V19.4495H338.668L339.153 14.8389H342.828V19.4495H347.577V22.9509H342.828V31.0629C342.828 31.9411 343.013 32.5535 343.382 32.9002C343.775 33.2238 344.422 33.3855 345.324 33.3855H347.473V36.9215H344.492Z" fill="white"/>
<path d="M324.904 37.3362C323.171 37.3362 321.645 36.9665 320.328 36.2269C319.011 35.4642 317.982 34.4011 317.242 33.0376C316.503 31.674 316.133 30.1024 316.133 28.3229C316.133 26.474 316.491 24.8562 317.208 23.4696C317.947 22.0829 318.976 20.9967 320.293 20.2109C321.634 19.4251 323.182 19.0322 324.939 19.0322C326.649 19.0322 328.139 19.4136 329.411 20.1762C330.682 20.9389 331.664 21.9673 332.357 23.2616C333.051 24.5327 333.397 25.9656 333.397 27.5602C333.397 27.7913 333.397 28.0456 333.397 28.3229C333.397 28.6002 333.374 28.8891 333.328 29.1896H319.115V26.5202H329.203C329.156 25.2491 328.729 24.2553 327.92 23.5389C327.111 22.7993 326.106 22.4296 324.904 22.4296C324.049 22.4296 323.263 22.626 322.547 23.0189C321.83 23.4118 321.264 24.0011 320.848 24.7869C320.432 25.5496 320.224 26.5202 320.224 27.6989V28.7042C320.224 29.7905 320.42 30.7264 320.813 31.5122C321.229 32.298 321.784 32.8989 322.477 33.3149C323.194 33.7078 323.991 33.9042 324.869 33.9042C325.84 33.9042 326.637 33.6962 327.261 33.2802C327.908 32.8642 328.382 32.3096 328.683 31.6162H332.912C332.588 32.7025 332.057 33.6847 331.317 34.5629C330.578 35.418 329.665 36.0998 328.579 36.6082C327.492 37.0936 326.267 37.3362 324.904 37.3362Z" fill="white"/>
<path d="M304.388 37.3362C302.655 37.3362 301.13 36.9665 299.812 36.2269C298.495 35.4642 297.466 34.4011 296.727 33.0376C295.987 31.674 295.618 30.1024 295.618 28.3229C295.618 26.474 295.976 24.8562 296.692 23.4696C297.432 22.0829 298.46 20.9967 299.778 20.2109C301.118 19.4251 302.666 19.0322 304.423 19.0322C306.133 19.0322 307.624 19.4136 308.895 20.1762C310.166 20.9389 311.148 21.9673 311.842 23.2616C312.535 24.5327 312.882 25.9656 312.882 27.5602C312.882 27.7913 312.882 28.0456 312.882 28.3229C312.882 28.6002 312.858 28.8891 312.812 29.1896H298.599V26.5202H308.687C308.641 25.2491 308.213 24.2553 307.404 23.5389C306.595 22.7993 305.59 22.4296 304.388 22.4296C303.533 22.4296 302.747 22.626 302.031 23.0189C301.315 23.4118 300.748 24.0011 300.332 24.7869C299.916 25.5496 299.708 26.5202 299.708 27.6989V28.7042C299.708 29.7905 299.905 30.7264 300.298 31.5122C300.714 32.298 301.268 32.8989 301.962 33.3149C302.678 33.7078 303.475 33.9042 304.354 33.9042C305.324 33.9042 306.122 33.6962 306.746 33.2802C307.393 32.8642 307.867 32.3096 308.167 31.6162H312.396C312.073 32.7025 311.541 33.6847 310.802 34.5629C310.062 35.418 309.149 36.0998 308.063 36.6082C306.977 37.0936 305.752 37.3362 304.388 37.3362Z" fill="white"/>
<path d="M266.08 36.9219V12.6553H271.003L278.768 28.3246L286.464 12.6553H291.421V36.9219H287.261V19.7966L280.397 33.5246H277.139L270.24 19.8313V36.9219H266.08Z" fill="white"/>
<path d="M243.699 36.9202V19.4482H247.408L247.79 22.7069C248.206 21.9442 248.726 21.2971 249.35 20.7656C249.974 20.2109 250.702 19.7833 251.534 19.4829C252.389 19.1824 253.325 19.0322 254.342 19.0322V23.4349H252.886C252.192 23.4349 251.534 23.5273 250.91 23.7122C250.286 23.874 249.743 24.1513 249.28 24.5442C248.841 24.914 248.495 25.434 248.24 26.1042C247.986 26.7513 247.859 27.5718 247.859 28.5656V36.9202H243.699Z" fill="white"/>
<path d="M234.732 36.9214V19.4494H238.892V36.9214H234.732ZM236.812 16.6761C236.049 16.6761 235.414 16.445 234.905 15.9828C234.42 15.4974 234.177 14.9081 234.177 14.2148C234.177 13.4983 234.42 12.9205 234.905 12.4814C235.414 12.0192 236.049 11.7881 236.812 11.7881C237.574 11.7881 238.198 12.0192 238.684 12.4814C239.192 12.9205 239.446 13.4983 239.446 14.2148C239.446 14.9081 239.192 15.4974 238.684 15.9828C238.198 16.445 237.574 16.6761 236.812 16.6761Z" fill="white"/>
<path d="M213.903 36.9212L220.074 28.1852L213.903 19.4492H218.375L222.743 25.7932L227.111 19.4492H231.583L225.413 28.1852L231.583 36.9212H227.111L222.743 30.5772L218.375 36.9212H213.903Z" fill="white"/>
<path d="M206.565 36.9214V19.4494H210.725V36.9214H206.565ZM208.645 16.6761C207.882 16.6761 207.247 16.445 206.738 15.9828C206.253 15.4974 206.01 14.9081 206.01 14.2148C206.01 13.4983 206.253 12.9205 206.738 12.4814C207.247 12.0192 207.882 11.7881 208.645 11.7881C209.408 11.7881 210.032 12.0192 210.517 12.4814C211.026 12.9205 211.28 13.4983 211.28 14.2148C211.28 14.9081 211.026 15.4974 210.517 15.9828C210.032 16.445 209.408 16.6761 208.645 16.6761Z" fill="white"/>
<path d="M197.59 36.9209V11.9609H201.75V36.9209H197.59Z" fill="white"/>
<path d="M177.687 36.9219V12.6553H193.356V16.0179H181.847V22.9859H192.316V26.2793H181.847V33.5593H193.356V36.9219H177.687Z" fill="white"/>
<path d="M160.282 36.9209V11.9609H164.442V36.9209H160.282Z" fill="white"/>
<path d="M146.201 37.3362C144.768 37.3362 143.577 37.0936 142.63 36.6082C141.682 36.1229 140.977 35.4758 140.515 34.6669C140.053 33.858 139.822 32.9798 139.822 32.0322C139.822 30.9229 140.099 29.9638 140.654 29.1549C141.232 28.346 142.075 27.722 143.185 27.2829C144.294 26.8207 145.657 26.5896 147.275 26.5896H151.678C151.678 25.6651 151.551 24.9024 151.296 24.3016C151.042 23.6776 150.649 23.2153 150.118 22.9149C149.586 22.6144 148.905 22.4642 148.073 22.4642C147.125 22.4642 146.316 22.6838 145.646 23.1229C144.976 23.5389 144.56 24.186 144.398 25.0642H140.307C140.446 23.8162 140.862 22.7531 141.555 21.8749C142.249 20.9736 143.161 20.2802 144.294 19.7949C145.449 19.2864 146.709 19.0322 148.073 19.0322C149.713 19.0322 151.112 19.3211 152.267 19.8989C153.423 20.4536 154.301 21.2625 154.902 22.3256C155.526 23.3656 155.838 24.6251 155.838 26.1042V36.9202H152.302L151.886 34.1122C151.655 34.5745 151.354 35.002 150.985 35.3949C150.638 35.7878 150.233 36.1344 149.771 36.4349C149.309 36.7122 148.777 36.9318 148.177 37.0936C147.599 37.2553 146.94 37.3362 146.201 37.3362ZM147.137 34.0429C147.807 34.0429 148.396 33.9273 148.904 33.6962C149.436 33.442 149.887 33.0953 150.257 32.6562C150.649 32.194 150.95 31.6856 151.158 31.1309C151.366 30.5762 151.505 29.9869 151.574 29.3629V29.2936H147.726C146.917 29.2936 146.247 29.3976 145.715 29.6056C145.184 29.8136 144.802 30.1025 144.571 30.4722C144.34 30.8189 144.224 31.2349 144.224 31.7202C144.224 32.2056 144.34 32.6216 144.571 32.9682C144.802 33.3149 145.137 33.5807 145.577 33.7656C146.016 33.9505 146.536 34.0429 147.137 34.0429Z" fill="white"/>
<path d="M127.949 37.3369C127.024 37.3369 126.192 37.2098 125.453 36.9556C124.713 36.7245 124.066 36.4009 123.511 35.9849C122.957 35.5458 122.495 35.0489 122.125 34.4943L121.674 36.9209H117.965V11.9609H122.125V22.0143C122.679 21.1592 123.431 20.4543 124.378 19.8996C125.326 19.3218 126.504 19.0329 127.914 19.0329C129.555 19.0329 130.999 19.4374 132.247 20.2463C133.519 21.032 134.512 22.1183 135.229 23.5049C135.968 24.8685 136.338 26.44 136.338 28.2196C136.338 29.9529 135.98 31.5129 135.263 32.8996C134.547 34.2863 133.553 35.3725 132.282 36.1583C131.034 36.9441 129.59 37.3369 127.949 37.3369ZM127.082 33.7316C128.053 33.7316 128.919 33.5005 129.682 33.0383C130.445 32.5529 131.034 31.9058 131.45 31.0969C131.889 30.2649 132.109 29.2943 132.109 28.1849C132.109 27.0987 131.889 26.1396 131.45 25.3076C131.034 24.4756 130.445 23.8285 129.682 23.3663C128.919 22.904 128.053 22.6729 127.082 22.6729C126.088 22.6729 125.21 22.904 124.447 23.3663C123.708 23.8285 123.119 24.4756 122.679 25.3076C122.263 26.1396 122.055 27.0987 122.055 28.1849C122.055 29.2943 122.263 30.2649 122.679 31.0969C123.119 31.9058 123.708 32.5529 124.447 33.0383C125.21 33.5005 126.088 33.7316 127.082 33.7316Z" fill="white"/>
<path d="M105.122 37.3362C103.458 37.3362 101.956 36.9549 100.615 36.1922C99.2979 35.4065 98.2579 34.3318 97.4953 32.9682C96.7557 31.5816 96.3859 29.9984 96.3859 28.2189C96.3859 26.3931 96.7673 24.7984 97.5299 23.4349C98.2926 22.0482 99.3326 20.9736 100.65 20.2109C101.99 19.4251 103.493 19.0322 105.157 19.0322C106.821 19.0322 108.311 19.4251 109.629 20.2109C110.969 20.9736 112.009 22.0367 112.749 23.4002C113.511 24.7638 113.893 26.3585 113.893 28.1842C113.893 30.01 113.511 31.6047 112.749 32.9682C111.986 34.3318 110.934 35.4065 109.594 36.1922C108.277 36.9549 106.786 37.3362 105.122 37.3362ZM105.122 33.7656C105.954 33.7656 106.705 33.5576 107.375 33.1416C108.069 32.7256 108.623 32.1016 109.039 31.2696C109.455 30.4376 109.663 29.4091 109.663 28.1842C109.663 26.9593 109.455 25.9424 109.039 25.1336C108.646 24.3016 108.103 23.6776 107.41 23.2616C106.74 22.8456 105.989 22.6376 105.157 22.6376C104.348 22.6376 103.597 22.8456 102.903 23.2616C102.21 23.6776 101.655 24.3016 101.239 25.1336C100.823 25.9424 100.615 26.9593 100.615 28.1842C100.615 29.4091 100.823 30.4376 101.239 31.2696C101.655 32.1016 102.198 32.7256 102.869 33.1416C103.562 33.5576 104.313 33.7656 105.122 33.7656Z" fill="white"/>
<path d="M88.173 36.9209V11.9609H92.333V36.9209H88.173Z" fill="white"/>
<path d="M72.1066 37.3369C69.8186 37.3369 67.8079 36.8169 66.0746 35.7769C64.3643 34.7369 63.0355 33.2925 62.0879 31.4436C61.1403 29.5716 60.6666 27.3876 60.6666 24.8916C60.6666 22.4187 61.1519 20.2347 62.1226 18.3396C63.0932 16.4214 64.4799 14.9307 66.2826 13.8676C68.1083 12.7814 70.2692 12.2383 72.7652 12.2383C75.5848 12.2383 77.919 12.9201 79.7679 14.2836C81.6399 15.6241 82.8532 17.4961 83.4079 19.8996H78.7279C78.3812 18.6978 77.6995 17.7618 76.6826 17.0916C75.6657 16.4214 74.3483 16.0863 72.7306 16.0863C71.0897 16.0863 69.6799 16.4445 68.5012 17.1609C67.3457 17.8543 66.4559 18.8712 65.8319 20.2116C65.231 21.5289 64.9306 23.1005 64.9306 24.9263C64.9306 26.7521 65.231 28.3236 65.8319 29.6409C66.4559 30.9583 67.3341 31.9636 68.4666 32.6569C69.599 33.3272 70.9279 33.6623 72.4532 33.6623C74.7181 33.6623 76.4283 33.0267 77.5839 31.7556C78.7395 30.4845 79.4212 28.8321 79.6292 26.7983H73.3546V23.6436H83.8239V36.9209H80.0106L79.6639 33.593C79.1323 34.3787 78.5199 35.0605 77.8266 35.6383C77.1332 36.193 76.3128 36.6205 75.3652 36.9209C74.4408 37.1983 73.3546 37.3369 72.1066 37.3369Z" fill="white"/>
</svg>
