<svg width="24" height="25" viewBox="0 0 24 25" fill="none" xmlns="http://www.w3.org/2000/svg">
<g clip-path="url(#clip0_4324_3965)">
<path d="M12 0.428711C5.37321 0.428711 0 5.80193 0 12.4287C0 19.0555 5.37321 24.4287 12 24.4287C18.6268 24.4287 24 19.0555 24 12.4287C24 5.80193 18.6268 0.428711 12 0.428711ZM17.767 9.47425C17.775 9.60014 17.775 9.73139 17.775 9.85996C17.775 13.7921 14.7804 18.3216 9.30804 18.3216C7.62054 18.3216 6.05625 17.8314 4.73839 16.9876C4.97946 17.0144 5.20982 17.0251 5.45625 17.0251C6.84911 17.0251 8.12946 16.5537 9.15 15.7555C7.84286 15.7287 6.74464 14.8716 6.36964 13.693C6.82768 13.76 7.24018 13.76 7.71161 13.6394C7.03855 13.5027 6.43359 13.1371 5.99951 12.6049C5.56542 12.0727 5.32898 11.4066 5.33036 10.7198V10.6823C5.72411 10.9046 6.1875 11.0412 6.67232 11.06C6.26476 10.7883 5.93051 10.4203 5.69923 9.98861C5.46794 9.55688 5.34676 9.07474 5.34643 8.58496C5.34643 8.0305 5.49107 7.52425 5.75089 7.08496C6.49795 8.00461 7.43017 8.75677 8.48696 9.29255C9.54375 9.82833 10.7014 10.1357 11.8848 10.1948C11.4643 8.17246 12.975 6.53585 14.7911 6.53585C15.6482 6.53585 16.4196 6.89478 16.9634 7.47335C17.6357 7.34746 18.2786 7.09567 18.8518 6.75817C18.6295 7.44657 18.1634 8.02782 17.5446 8.39478C18.1446 8.3305 18.7232 8.16443 19.2589 7.93139C18.8545 8.52603 18.3482 9.05371 17.767 9.47425Z"
    fill="white"/>
</g>
<defs>
<clipPath id="clip0_4324_3965">
<rect width="24" height="24" fill="white" transform="translate(0 0.428711)"/>
</clipPath>
</defs>
</svg>
