<svg width="24" height="25" viewBox="0 0 24 25" fill="none" xmlns="http://www.w3.org/2000/svg">
<g clip-path="url(#clip0_4324_3971)">
<path d="M23.4985 6.2451C23.2225 5.13651 22.4092 4.26341 21.3766 3.96712C19.505 3.42871 12 3.42871 12 3.42871C12 3.42871 4.49503 3.42871 2.62336 3.96712C1.59077 4.26346 0.777523 5.13651 0.501503 6.2451C0 8.25449 0 12.4469 0 12.4469C0 12.4469 0 16.6393 0.501503 18.6487C0.777523 19.7573 1.59077 20.594 2.62336 20.8903C4.49503 21.4287 12 21.4287 12 21.4287C12 21.4287 19.505 21.4287 21.3766 20.8903C22.4092 20.594 23.2225 19.7573 23.4985 18.6487C24 16.6393 24 12.4469 24 12.4469C24 12.4469 24 8.25449 23.4985 6.2451ZM9.54544 16.2533V8.64051L15.8181 12.447L9.54544 16.2533Z"
    fill="white"/>
</g>
<defs>
<clipPath id="clip0_4324_3971">
<rect width="24" height="24" fill="white" transform="translate(0 0.428711)"/>
</clipPath>
</defs>
</svg>
