<svg viewBox="0 0 14 14" fill="currentColor" xmlns="http://www.w3.org/2000/svg"  >
<path fill-rule="evenodd" clip-rule="evenodd" d="M0.5 7C0.5 3.41015 3.41015 0.5 7 0.5C10.5899 0.5 13.5 3.41015 13.5 7C13.5 10.5899 10.5899 13.5 7 13.5C3.41015 13.5 0.5 10.5899 0.5 7ZM9.40687 5.79062C9.56737 5.56591 9.51533 5.25364 9.29062 5.09313C9.06591 4.93263 8.75364 4.98467 8.59313 5.20938L6.4362 8.22909L5.35355 7.14645C5.15829 6.95118 4.84171 6.95118 4.64645 7.14645C4.45118 7.34171 4.45118 7.65829 4.64645 7.85355L6.14645 9.35355C6.25037 9.45748 6.39476 9.51042 6.54124 9.4983C6.68772 9.48617 6.82144 9.41022 6.90687 9.29062L9.40687 5.79062Z"/>
</svg>
