<svg viewBox="0 0 118 24" fill="none" xmlns="http://www.w3.org/2000/svg">
<path fill-rule="evenodd" clip-rule="evenodd" d="M22.0941 20.6239C22.5697 20.624 22.9553 20.2384 22.9554 19.7628L22.9556 16.6567C22.9556 16.4283 22.8649 16.2092 22.7034 16.0477C22.5418 15.8862 22.3228 15.7954 22.0944 15.7954L18.3034 15.7954L18.3034 17.5178L21.2331 17.5179L21.2329 19.7627C21.2329 20.2383 21.6185 20.6239 22.0941 20.6239Z" fill="currentColor"/>
<path fill-rule="evenodd" clip-rule="evenodd" d="M22.9823 12.9676C22.9823 12.492 22.5968 12.1064 22.1211 12.1064L18.3034 12.1064V13.8289H22.1211C22.5968 13.8289 22.9823 13.4433 22.9823 12.9676Z" fill="currentColor"/>
<path fill-rule="evenodd" clip-rule="evenodd" d="M22.1385 5.31156C22.6142 5.31153 22.9998 5.69709 22.9998 6.17273L23 9.2788C23 9.50722 22.9093 9.72629 22.7478 9.88781C22.5863 10.0493 22.3672 10.1401 22.1388 10.1401L18.3034 10.1401L18.3164 8.41766L21.2775 8.41764L21.2774 6.17284C21.2773 5.6972 21.6629 5.31159 22.1385 5.31156Z" fill="currentColor"/>
<path fill-rule="evenodd" clip-rule="evenodd" d="M1.86148 20.6239C1.38585 20.624 1.00024 20.2384 1.00021 19.7628L1 16.6567C0.999985 16.4283 1.09071 16.2092 1.25222 16.0477C1.41373 15.8862 1.6328 15.7954 1.86122 15.7954L5.6836 15.7954L5.6836 17.5178L2.7225 17.5179L2.72265 19.7627C2.72268 20.2383 2.33712 20.6239 1.86148 20.6239Z" fill="currentColor"/>
<path fill-rule="evenodd" clip-rule="evenodd" d="M1.00465 12.9677C1.00465 12.492 1.39023 12.1064 1.86587 12.1064L5.6836 12.1064L5.68361 13.8289L1.86588 13.8289C1.39024 13.8289 1.00465 13.4433 1.00465 12.9677Z" fill="currentColor"/>
<path fill-rule="evenodd" clip-rule="evenodd" d="M1.8619 5.31156C1.38626 5.31153 1.00066 5.69709 1.00062 6.17273L1.00042 9.2788C1.00041 9.50722 1.09113 9.72629 1.25265 9.88781C1.41416 10.0493 1.63322 10.1401 1.86164 10.1401L5.68402 10.1401L5.68404 8.41767L2.72292 8.41764L2.72307 6.17284C2.7231 5.6972 2.33754 5.31159 1.8619 5.31156Z" fill="currentColor"/>
<path fill-rule="evenodd" clip-rule="evenodd" d="M16.5822 5.95094C16.5563 5.55982 16.4815 5.1821 16.3637 4.82383C15.761 2.99004 14.0347 1.66602 11.9993 1.66602C9.46255 1.66602 7.40614 3.72239 7.40607 6.25908C7.40607 6.07958 7.41637 5.90249 7.4364 5.72835C6.37344 6.46404 5.5006 7.27949 4.95972 7.82901C4.57693 8.21791 4.3604 8.47363 4.3604 8.47363V15.5759C4.3604 16.9134 4.75938 18.2351 5.70216 19.1838C6.91489 20.4041 8.85964 21.9501 11.1606 22.2731C11.4426 22.3126 11.7299 22.3339 12.0219 22.3339C12.3121 22.3339 12.5995 22.3101 12.8831 22.2659C15.0234 21.9324 16.9448 20.4368 18.1856 19.2335C19.1941 18.2556 19.6354 16.8718 19.6354 15.467V8.47363C19.6354 8.47363 19.4208 8.21692 19.0408 7.82674C18.5007 7.27217 17.6266 6.44798 16.5597 5.70804C16.5693 5.78838 16.5768 5.86937 16.5822 5.95094ZM9.94789 6.25919C9.21504 6.59441 8.48065 7.06766 7.79147 7.60472C7.27937 8.00378 6.83377 8.40531 6.483 8.74431L12.0205 12.0716L17.5232 8.74436C17.1757 8.40458 16.7328 8.00122 16.2228 7.60038C15.5416 7.0651 14.8151 6.59351 14.0886 6.25919H9.94789ZM11.9993 3.38846C13.0618 3.38846 13.9896 3.96576 14.4859 4.82383L9.51244 4.82405C10.0088 3.96586 10.9366 3.38846 11.9993 3.38846ZM11.1606 13.5645L6.08284 10.5133V15.5759C6.08284 16.5948 6.38663 17.429 6.92389 17.9696C8.02405 19.0766 9.53264 20.2138 11.1606 20.5272V13.5645ZM12.8831 20.5143C14.3643 20.1903 15.8444 19.1046 16.9865 17.997C17.5787 17.4228 17.913 16.5335 17.913 15.467V10.5215L12.8831 13.5629V20.5143Z" fill="currentColor"/>
<path d="M30 18.038V8.238H31.61V16.61H35.824V18.038H30Z" fill="currentColor"/>
<path d="M38.3147 8.266C38.4827 8.434 38.5807 8.658 38.5807 8.91C38.5807 9.176 38.4827 9.4 38.3147 9.568C38.1327 9.736 37.9087 9.82 37.6567 9.82C37.3907 9.82 37.1667 9.736 36.9987 9.568C36.8167 9.4 36.7327 9.176 36.7327 8.91C36.7327 8.658 36.8167 8.434 36.9987 8.266C37.1667 8.098 37.3907 8 37.6567 8C37.9087 8 38.1327 8.098 38.3147 8.266ZM36.9007 10.87H38.4127V18.038H36.9007V10.87Z" fill="currentColor"/>
<path d="M39.1808 10.87H40.8048L42.7788 16.414L44.7248 10.87H46.3208L43.6748 18.038H41.8268L39.1808 10.87Z" fill="currentColor"/>
<path d="M46.9808 12.536C47.2748 11.976 47.6808 11.556 48.2128 11.248C48.7448 10.94 49.3468 10.786 50.0328 10.786C50.7188 10.786 51.3208 10.926 51.8528 11.206C52.3848 11.486 52.7908 11.892 53.0988 12.396C53.4068 12.914 53.5608 13.516 53.5748 14.202C53.5748 14.398 53.5608 14.58 53.5328 14.776H48.1288V14.86C48.1568 15.49 48.3528 15.98 48.7168 16.344C49.0668 16.708 49.5428 16.89 50.1308 16.89C50.5928 16.89 50.9848 16.792 51.3068 16.568C51.6148 16.344 51.8248 16.036 51.9368 15.63H53.4488C53.3088 16.358 52.9588 16.96 52.3848 17.422C51.8108 17.898 51.0968 18.122 50.2428 18.122C49.4868 18.122 48.8428 17.982 48.2828 17.674C47.7228 17.366 47.3028 16.946 46.9948 16.386C46.6868 15.84 46.5468 15.196 46.5468 14.468C46.5468 13.74 46.6868 13.096 46.9808 12.536ZM52.0348 13.67C51.9648 13.152 51.7548 12.746 51.4048 12.452C51.0548 12.158 50.6208 12.004 50.0888 12.004C49.5848 12.004 49.1648 12.158 48.8008 12.466C48.4368 12.774 48.2408 13.166 48.1848 13.67H52.0348Z" fill="currentColor"/>
<path d="M54.9512 8.238H58.0732C59.0672 8.238 59.9352 8.448 60.6912 8.854C61.4332 9.274 62.0072 9.848 62.4132 10.576C62.8052 11.318 63.0152 12.172 63.0152 13.138C63.0152 14.104 62.8052 14.958 62.4132 15.7C62.0072 16.442 61.4332 17.016 60.6912 17.422C59.9352 17.842 59.0672 18.038 58.0732 18.038H54.9512V8.238ZM58.0732 16.638C59.1232 16.638 59.9352 16.33 60.5092 15.7C61.0692 15.07 61.3632 14.216 61.3632 13.138C61.3632 12.074 61.0692 11.22 60.5092 10.59C59.9352 9.96 59.1232 9.638 58.0732 9.638H56.5612V16.638H58.0732Z" fill="currentColor"/>
<path d="M64.4398 12.536C64.7338 11.976 65.1398 11.556 65.6718 11.248C66.2038 10.94 66.8058 10.786 67.4918 10.786C68.1778 10.786 68.7798 10.926 69.3118 11.206C69.8438 11.486 70.2498 11.892 70.5578 12.396C70.8658 12.914 71.0198 13.516 71.0338 14.202C71.0338 14.398 71.0198 14.58 70.9918 14.776H65.5878V14.86C65.6158 15.49 65.8118 15.98 66.1758 16.344C66.5258 16.708 67.0018 16.89 67.5898 16.89C68.0518 16.89 68.4438 16.792 68.7658 16.568C69.0738 16.344 69.2838 16.036 69.3958 15.63H70.9078C70.7678 16.358 70.4178 16.96 69.8438 17.422C69.2698 17.898 68.5558 18.122 67.7018 18.122C66.9458 18.122 66.3018 17.982 65.7418 17.674C65.1818 17.366 64.7618 16.946 64.4538 16.386C64.1458 15.84 64.0058 15.196 64.0058 14.468C64.0058 13.74 64.1458 13.096 64.4398 12.536ZM69.4938 13.67C69.4238 13.152 69.2138 12.746 68.8638 12.452C68.5138 12.158 68.0798 12.004 67.5478 12.004C67.0438 12.004 66.6238 12.158 66.2598 12.466C65.8958 12.774 65.6998 13.166 65.6438 13.67H69.4938Z" fill="currentColor"/>
<path d="M77.8422 11.234C78.3462 11.528 78.7522 11.948 79.0462 12.494C79.3262 13.054 79.4802 13.698 79.4802 14.454C79.4802 15.182 79.3262 15.812 79.0462 16.372C78.7522 16.932 78.3462 17.352 77.8422 17.66C77.3242 17.968 76.7362 18.122 76.0922 18.122C75.5602 18.122 75.0982 18.024 74.7062 17.828C74.3142 17.632 73.9922 17.352 73.7542 17.002L73.5722 18.038H72.2562V8.238H73.7682V11.934C74.3282 11.178 75.1122 10.786 76.0922 10.786C76.7362 10.786 77.3242 10.94 77.8422 11.234ZM77.3522 16.19C77.7442 15.742 77.9402 15.168 77.9402 14.454C77.9402 13.754 77.7442 13.194 77.3522 12.746C76.9602 12.298 76.4562 12.074 75.8402 12.074C75.2102 12.074 74.7062 12.298 74.3282 12.732C73.9362 13.18 73.7542 13.74 73.7542 14.44C73.7542 15.154 73.9362 15.728 74.3282 16.176C74.7062 16.624 75.2102 16.848 75.8402 16.848C76.4562 16.848 76.9602 16.638 77.3522 16.19Z" fill="currentColor"/>
<path d="M87.1177 10.87V18.038H85.7877L85.6197 17.128C85.0737 17.8 84.3317 18.122 83.4077 18.122C82.5677 18.122 81.8817 17.87 81.3637 17.338C80.8317 16.82 80.5797 15.98 80.5797 14.818V10.87H82.0917V14.664C82.0917 15.364 82.2317 15.896 82.5117 16.26C82.7917 16.624 83.1977 16.806 83.7577 16.806C84.3317 16.806 84.7797 16.596 85.1157 16.176C85.4377 15.756 85.6057 15.168 85.6057 14.426V10.87H87.1177Z" fill="currentColor"/>
<path d="M95.5657 10.87V17.744C95.5657 18.752 95.2577 19.536 94.6697 20.096C94.0677 20.656 93.1437 20.922 91.8977 20.922C90.9177 20.922 90.1337 20.712 89.5317 20.278C88.9157 19.844 88.5797 19.228 88.5237 18.43H90.0637C90.1477 18.836 90.3717 19.144 90.7077 19.368C91.0437 19.592 91.4777 19.69 92.0097 19.69C93.3817 19.69 94.0677 19.032 94.0677 17.688V16.89C93.5357 17.674 92.7657 18.066 91.7297 18.066C91.0717 18.066 90.4837 17.926 89.9797 17.632C89.4617 17.338 89.0557 16.918 88.7757 16.372C88.4817 15.826 88.3417 15.182 88.3417 14.426C88.3417 13.712 88.4817 13.082 88.7757 12.522C89.0697 11.976 89.4757 11.556 89.9937 11.248C90.4977 10.94 91.0857 10.786 91.7297 10.786C92.2617 10.786 92.7377 10.898 93.1297 11.108C93.5217 11.332 93.8297 11.626 94.0817 11.99L94.2497 10.87H95.5657ZM93.4937 16.148C93.8717 15.714 94.0677 15.154 94.0677 14.454C94.0677 13.754 93.8717 13.18 93.4937 12.732C93.1017 12.284 92.5977 12.06 91.9817 12.06C91.3517 12.06 90.8477 12.284 90.4697 12.718C90.0777 13.166 89.8957 13.726 89.8957 14.426C89.8957 15.126 90.0777 15.7 90.4697 16.134C90.8477 16.582 91.3517 16.792 91.9817 16.792C92.5977 16.792 93.1017 16.582 93.4937 16.148Z" fill="currentColor"/>
<path d="M104.001 10.87V17.744C104.001 18.752 103.693 19.536 103.105 20.096C102.503 20.656 101.579 20.922 100.333 20.922C99.3533 20.922 98.5693 20.712 97.9673 20.278C97.3513 19.844 97.0153 19.228 96.9593 18.43H98.4993C98.5833 18.836 98.8073 19.144 99.1433 19.368C99.4793 19.592 99.9133 19.69 100.445 19.69C101.817 19.69 102.503 19.032 102.503 17.688V16.89C101.971 17.674 101.201 18.066 100.165 18.066C99.5073 18.066 98.9193 17.926 98.4153 17.632C97.8973 17.338 97.4913 16.918 97.2113 16.372C96.9173 15.826 96.7773 15.182 96.7773 14.426C96.7773 13.712 96.9173 13.082 97.2113 12.522C97.5053 11.976 97.9113 11.556 98.4293 11.248C98.9333 10.94 99.5213 10.786 100.165 10.786C100.697 10.786 101.173 10.898 101.565 11.108C101.957 11.332 102.265 11.626 102.517 11.99L102.685 10.87H104.001ZM101.929 16.148C102.307 15.714 102.503 15.154 102.503 14.454C102.503 13.754 102.307 13.18 101.929 12.732C101.537 12.284 101.033 12.06 100.417 12.06C99.7873 12.06 99.2833 12.284 98.9053 12.718C98.5133 13.166 98.3313 13.726 98.3313 14.426C98.3313 15.126 98.5133 15.7 98.9053 16.134C99.2833 16.582 99.7873 16.792 100.417 16.792C101.033 16.792 101.537 16.582 101.929 16.148Z" fill="currentColor"/>
<path d="M105.647 12.536C105.941 11.976 106.347 11.556 106.879 11.248C107.411 10.94 108.013 10.786 108.699 10.786C109.385 10.786 109.987 10.926 110.519 11.206C111.051 11.486 111.457 11.892 111.765 12.396C112.073 12.914 112.227 13.516 112.241 14.202C112.241 14.398 112.227 14.58 112.199 14.776H106.795V14.86C106.823 15.49 107.019 15.98 107.383 16.344C107.733 16.708 108.209 16.89 108.797 16.89C109.259 16.89 109.651 16.792 109.973 16.568C110.281 16.344 110.491 16.036 110.603 15.63H112.115C111.975 16.358 111.625 16.96 111.051 17.422C110.477 17.898 109.763 18.122 108.909 18.122C108.153 18.122 107.509 17.982 106.949 17.674C106.389 17.366 105.969 16.946 105.661 16.386C105.353 15.84 105.213 15.196 105.213 14.468C105.213 13.74 105.353 13.096 105.647 12.536ZM110.701 13.67C110.631 13.152 110.421 12.746 110.071 12.452C109.721 12.158 109.287 12.004 108.755 12.004C108.251 12.004 107.831 12.158 107.467 12.466C107.103 12.774 106.907 13.166 106.851 13.67H110.701Z" fill="currentColor"/>
<path d="M117.425 10.87V12.284H116.753C116.123 12.284 115.675 12.494 115.395 12.9C115.115 13.306 114.975 13.824 114.975 14.44V18.038H113.463V10.87H114.807L114.975 11.948C115.171 11.612 115.437 11.36 115.773 11.164C116.095 10.968 116.529 10.87 117.089 10.87H117.425Z" fill="currentColor"/>
</svg>
