<svg xmlns="http://www.w3.org/2000/svg" viewBox="0 0 24 24" fill="none">
  <path fill-rule="evenodd" clip-rule="evenodd" d="M3.25 5C3.25 4.0335 4.0335 3.25 5 3.25H9.69281C10.6593 3.25 11.4428 4.0335 11.4428 5V9.69281C11.4428 10.6593 10.6593 11.4428 9.69281 11.4428H8.09637V15.6536C8.09637 15.7917 8.2083 15.9036 8.34637 15.9036H12.5572V14.3072C12.5572 13.3407 13.3407 12.5572 14.3072 12.5572H19C19.9665 12.5572 20.75 13.3407 20.75 14.3072V19C20.75 19.9665 19.9665 20.75 19 20.75H14.3072C13.3407 20.75 12.5572 19.9665 12.5572 19V17.4036H8.34637C7.37988 17.4036 6.59637 16.6201 6.59637 15.6536V11.4428H5C4.0335 11.4428 3.25 10.6593 3.25 9.69281V5ZM5 4.75C4.86193 4.75 4.75 4.86193 4.75 5V9.69281C4.75 9.83088 4.86193 9.94281 5 9.94281H9.69281C9.83088 9.94281 9.94281 9.83088 9.94281 9.69281V5C9.94281 4.86193 9.83088 4.75 9.69281 4.75H5ZM14.0572 14.3072C14.0572 14.1691 14.1691 14.0572 14.3072 14.0572H19C19.1381 14.0572 19.25 14.1691 19.25 14.3072V19C19.25 19.1381 19.1381 19.25 19 19.25H14.3072C14.1691 19.25 14.0572 19.1381 14.0572 19V14.3072Z" fill="currentColor"/>
</svg>
